<svg version="1.1" id="github" xmlns="http://www.w3.org/2000/svg" xmlns:xlink="http://www.w3.org/1999/xlink" x="0px" y="0px" viewBox="126.4 2.3 589 589" enable-background="new 126.4 2.3 589 589" xml:space="preserve">
    <path fill="#2DAAE1" class="social-icon-img" d="M420.9,2.3c-162.6,0-294.5,131.9-294.5,294.5s131.9,294.5,294.5,294.5s294.5-131.9,294.5-294.5
	S583.6,2.3,420.9,2.3z M674.8,304.1c-0.1,0-0.2,0-0.3,0c-22.5-4.2-55.2-8.7-111.1-8.2c-1,3.3-2.1,6.3-3.3,9.3
	c19,0.6,71.2,2.7,113.8,15.7c0.9,0.3,1.4,1.2,1.1,2.1c-0.2,0.7-0.9,1.2-1.6,1.2c-0.2,0-0.3,0-0.5-0.1c-43.2-13.2-96.5-15-114.3-15.6
	c-15.4,33.9-47.1,46.6-98.3,51.9c16.6,10.4,21.4,23.5,21.4,59c0,35.5-0.5,40.2-0.4,48.4c0.2,13.4,19.8,19.8,19.1,24.1
	c-0.7,4.3-16.4,3.6-23.7,1c-20.8-7.2-18.7-24.5-18.7-24.5l-0.7-47.4c0,0,1.4-25.5-8-25.5c0,5.1,0,59.2,0,77.6
	c0,16.9,11.8,22,11.8,28.2c0,10.7-21.6-1-28.2-7.7c-10.1-10.2-9-31.7-8.7-48.8c0.2-16.5-0.2-52.5-0.2-52.5l-6.9,0.1
	c0,0,2.8,78.7-3.6,93c-8.3,18.4-33.5,24.7-33.5,16.4c0-5.6,6.2-3.8,9.6-16.5c2.9-10.8,1.9-91,1.9-91s-8.1,4.8-8.1,19.8
	c0,6.9-0.2,46.2-0.2,57.9c0,14.7-20.9,23.1-30.9,23.1c-5.1,0-11.4-0.2-11.4-2.9c0-6.8,19.1-10.8,19.1-24.9c0-12.3-0.3-43.8-0.3-43.8
	s-9.6,1.6-23.4,1.6c-34.6,0-45.6-22.1-50.8-34.5c-6.8-16.1-15.6-23.7-24.9-29.7c-5.7-3.7-7.1-8.1-0.4-9.3
	c30.7-5.8,38.5,34.8,59,41.2c14.6,4.6,33.4,2.6,42.7-3.4c1.2-12.4,10.2-23.1,17.6-28.7c-52.1-5-82.9-23.1-98.9-52.1
	c-54.5,1.3-85.4,9-108,14.7c-1.7,0.4-3.3,0.8-4.8,1.2c-0.1,0-0.3,0-0.4,0c-0.7,0-1.4-0.5-1.6-1.2c-0.2-0.9,0.3-1.8,1.2-2
	c1.6-0.4,3.2-0.8,4.8-1.2c22.6-5.6,53.3-13.3,107.1-14.8c-1.5-3-2.8-6.1-4-9.2c-20.9-0.2-85.4,2.8-107.5,8.2c-0.1,0-0.3,0-0.4,0
	c-0.7,0-1.4-0.5-1.6-1.3c-0.2-0.9,0.3-1.8,1.2-2c21.9-5.4,84.8-8.4,107.1-8.4c-5-14.8-7.2-31.7-7.2-50.5c0-33.5,10.4-46.2,24.5-64
	c-10.7-38.2,3.8-64.3,3.8-64.3s22.5-4.7,65.1,25.8c23.1-9.9,84.6-10.7,113.8-2.2c17.9-11.8,50.6-28.6,63.8-23.9
	c3.6,5.8,11.3,22.5,4.7,59.3c4.5,8.1,27.8,25.3,27.9,73.9c-0.4,17.9-2.2,33.1-5.7,45.9c55.5-0.5,88.2,4.1,110.7,8.3
	c0.9,0.2,1.5,1,1.3,1.9C676.3,303.5,675.6,304.1,674.8,304.1z">
    </path>
</svg>
