<svg version="1.1" id="svg_greeting_text" xmlns="http://www.w3.org/2000/svg" xmlns:xlink="http://www.w3.org/1999/xlink" x="0px" y="0px" viewBox="0 0 958 131.4" enable-background="new 0 0 958 131.4" xml:space="preserve">
    <defs>
        <link rel="stylesheet" type="text/css" href="../css/hi-jonah.css" xmlns="http://www.w3.org/1999/xhtml" />
    </defs>
    <g id="hi">
        <path id="hi-period" class="animated-draw" d="M163.3,128.5v-17.6h3.6v17.6H163.3z" />
        <path id="hi-i" class="animated-draw" d="M126.5,18.2V0h3.6v18.2H126.5z M126.5,128.5V36h3.6v92.5H126.5z" />
        <path id="hi-h" class="animated-draw" d="M13.3,128.5H9.7V0h3.6v59.8h90V0h3.6v128.5h-3.6V63.4h-90V128.5z" />
    </g>
    <g id="im">
        <path id="im-m" class="animated-draw" d="M306.7,36v22.9h0.4c0.8-3.6,2.2-6.9,4-9.9c1.8-3,4-5.6,6.7-7.9c2.6-2.3,5.5-4,8.7-5.3c3.2-1.3,6.6-1.9,10.2-1.9
        c7.2-0.2,13.2,1.6,18.1,5.5c4.9,3.9,8.1,9.3,9.6,16.1h0.4c1.8-6.5,5.3-11.7,10.6-15.7c5.3-4,11.5-5.9,18.7-5.9
        c5.6,0,10.3,0.8,14,2.5c3.7,1.7,6.7,4,9,6.9c2.3,2.9,3.9,6.5,4.9,10.6c1,4.1,1.4,8.7,1.4,13.8v60.8h-3.6V67.7
        c0-4.6-0.4-8.7-1.2-12.4c-0.8-3.7-2.2-6.9-4.1-9.5c-2-2.6-4.6-4.7-7.9-6.1c-3.3-1.4-7.5-2.2-12.5-2.2c-4.4,0-8.5,0.9-12.1,2.6
        c-3.6,1.7-6.7,4.1-9.2,7.1c-2.5,3-4.4,6.5-5.8,10.3c-1.3,3.9-2,8-2,12.3v58.7h-3.6V69.1c0-4.3-0.3-8.4-1-12.2
        c-0.7-3.8-1.9-7.2-3.7-10.1s-4.3-5.2-7.6-6.8c-3.2-1.7-7.4-2.5-12.6-2.5c-4.6,0-8.7,1.1-12.4,3.2c-3.7,2.1-6.9,4.9-9.5,8.5
        c-2.6,3.5-4.6,7.7-5.9,12.3c-1.4,4.7-2.1,9.6-2.1,14.8v52.4h-3.6V36C303.1,36,306.7,36,306.7,36z" />
        <path id="im-apostraphe" class="animated-draw" d="M280.1,21.2c0,3.2-0.1,5.9-0.4,7.9c-0.2,2-0.7,3.8-1.4,5.2c-0.7,1.4-1.5,2.6-2.5,3.5
        c-1,0.9-2.3,1.8-3.9,2.6v-3.6c1.8-1.2,3-3,3.6-5.3c0.6-2.3,0.9-5.8,0.9-10.4V0h3.6L280.1,21.2L280.1,21.2z" />
        <path id="im-i" class="animated-draw" d="M253.4,0v128.5h-3.6V0H253.4z" />
    </g>
    <g id="jonah">
        <path id="jonah-period" class="animated-draw" d="M949.9,128.5v-17.6h3.6v17.6H949.9z" />
        <path id="jonah-h" class="animated-draw" d="M850.1,0v58.9h0.4c0.8-3.6,2.2-6.9,4-9.9c1.9-3,4.2-5.6,7-7.9c2.8-2.3,6.1-4,9.8-5.3
        c3.7-1.3,7.9-1.9,12.4-1.9c4.8,0,9.2,0.7,13.2,2.2c4,1.4,7.5,3.6,10.4,6.4c2.9,2.8,5.2,6.3,6.8,10.4s2.4,8.9,2.4,14.3v61.4h-3.6
        V67.7c0-5.4-0.8-10-2.3-13.8c-1.6-3.8-3.7-6.9-6.4-9.4c-2.7-2.5-5.8-4.3-9.4-5.4c-3.5-1.1-7.3-1.7-11.2-1.7
        c-5.5,0-10.4,1.1-14.6,3.2c-4.2,2.1-7.7,4.9-10.5,8.5c-2.8,3.5-5,7.7-6.4,12.3s-2.2,9.6-2.2,14.8v52.4h-3.6V0H850.1z" />
        <path id="jonah-a" class="animated-draw" d="M762.5,52.5c1.6-3.8,3.8-7,6.8-9.8c2.9-2.8,6.5-4.9,10.8-6.5c4.3-1.6,9.3-2.3,15-2.3c4.1,0,7.9,0.4,11.6,1.3
        c3.7,0.8,6.9,2.3,9.6,4.4c2.8,2.1,5,4.8,6.7,8.2c1.7,3.4,2.6,7.6,2.7,12.6v58.9c0,1.8,0.4,3.1,1.1,4c0.7,0.8,1.7,1.4,2.9,1.7
        c1.2,0.3,2.5,0.4,3.9,0.4c1.4-0.1,2.7-0.1,3.9-0.3v3.6H832c-2.6,0-5-0.6-6.9-1.9c-2-1.3-3-3.6-3-7.1v-12.1h-0.4
        c-1,3-2.5,5.9-4.6,8.6c-2.1,2.8-4.7,5.2-7.9,7.4c-3.2,2.2-6.8,3.9-10.9,5.1c-4.1,1.3-8.5,1.9-13.3,1.9c-9.4,0-16.9-2.1-22.5-6.2
        c-5.6-4.1-8.5-10.3-8.5-18.6c0-5.8,0.9-10.4,2.8-13.9c1.9-3.5,4.3-6.2,7.3-8.2c3-2,6.4-3.4,10.3-4.1c3.8-0.8,7.7-1.3,11.5-1.5
        c6.4-0.4,11.8-0.7,16.4-1c4.6-0.3,8.3-0.9,11.2-1.8c2.9-0.9,5.1-2.3,6.5-4.1c1.4-1.9,2.1-4.5,2.1-8c0-2.8-0.2-5.6-0.7-8.6
        c-0.5-3-1.7-5.8-3.5-8.3c-1.9-2.5-4.6-4.6-8.2-6.2s-8.5-2.4-14.6-2.4c-9.7,0-17.3,2.4-22.7,7.1c-5.4,4.7-8.4,11.4-9,20.1h-3.6
        C760,60.3,760.9,56.2,762.5,52.5z M821.7,74.2c-1.2,1.7-3.1,3-5.6,3.9s-5.4,1.6-8.6,2.1c-3.2,0.5-6.8,0.8-10.5,0.9
        c-3.8,0.1-7.5,0.3-11.1,0.5c-3.6,0.2-7.1,0.7-10.5,1.3c-3.4,0.7-6.5,1.9-9.1,3.6c-2.6,1.7-4.7,4.1-6.3,7.2c-1.6,3.1-2.3,7.1-2.3,12
        c0,2.6,0.5,5.3,1.4,7.8c0.9,2.6,2.4,4.9,4.6,6.8s5,3.6,8.4,4.9s7.6,1.9,12.7,1.9c6,0,11.3-1,16-3.1c4.7-2,8.6-4.7,11.8-8
        c3.2-3.3,5.6-7.1,7.2-11.4s2.4-8.8,2.4-13.3V74.2C822.1,74.2,821.7,74.2,821.7,74.2z" />
        <path id="jonah-n" class="animated-draw" d="M673.6,36v22.9h0.4c0.8-3.6,2.2-6.9,4-9.9c1.9-3,4.2-5.6,7-7.9c2.8-2.3,6.1-4,9.8-5.3
        c3.7-1.3,7.9-1.9,12.4-1.9c4.8,0,9.2,0.7,13.2,2.2c4,1.4,7.5,3.6,10.4,6.4c2.9,2.8,5.2,6.3,6.8,10.4s2.4,8.9,2.4,14.3v61.4h-3.6
        V67.7c0-5.4-0.8-10-2.3-13.8c-1.6-3.8-3.7-6.9-6.4-9.4c-2.7-2.5-5.8-4.3-9.4-5.4c-3.5-1.1-7.3-1.7-11.2-1.7
        c-5.5,0-10.4,1.1-14.6,3.2c-4.2,2.1-7.7,4.9-10.5,8.5c-2.8,3.5-5,7.7-6.4,12.3s-2.2,9.6-2.2,14.8v52.4H670V36
        C670,36,673.6,36,673.6,36z" />
        <path id="jonah-o" class="animated-draw" d="M574.4,64c1.8-5.8,4.5-10.9,8-15.4c3.5-4.4,7.9-8,13-10.7c5.2-2.7,11.2-4,18-4c6.7,0,12.7,1.3,17.8,4
        c5.2,2.7,9.5,6.3,13,10.7c3.5,4.4,6.2,9.6,8,15.4c1.8,5.8,2.7,11.9,2.7,18.3c0,6.4-0.9,12.5-2.7,18.3c-1.8,5.8-4.5,11-8,15.4
        c-3.5,4.4-7.9,8-13,10.6c-5.2,2.6-11.2,4-18,4c-6.7,0-12.7-1.3-17.8-4c-5.2-2.6-9.5-6.2-13-10.6c-3.5-4.4-6.2-9.6-8-15.4
        c-1.8-5.8-2.7-11.9-2.7-18.3C571.7,75.9,572.6,69.8,574.4,64z M577.7,99.2c1.6,5.4,4,10.2,7.3,14.3c3.2,4.1,7.2,7.4,12,9.9
        c4.7,2.5,10.2,3.7,16.5,3.7c6.1,0,11.5-1.2,16.3-3.7c4.7-2.5,8.7-5.8,12-9.9s5.7-8.9,7.3-14.3c1.6-5.4,2.4-11,2.4-16.9
        c0-5.8-0.8-11.3-2.4-16.7c-1.6-5.4-4-10.2-7.3-14.3c-3.2-4.1-7.2-7.5-12-10c-4.7-2.5-10.2-3.8-16.3-3.8c-6.2,0-11.7,1.3-16.5,3.8
        c-4.7,2.5-8.7,5.8-12,10s-5.7,8.9-7.3,14.3s-2.4,11-2.4,16.7C575.3,88.1,576.1,93.8,577.7,99.2z" />
        <path id="jonah-j" class="animated-draw" d="M556,0v95c0,5.4-0.6,10.3-1.9,14.8c-1.3,4.4-3.3,8.3-6,11.5c-2.8,3.2-6.4,5.7-10.9,7.5
        c-4.5,1.7-10,2.6-16.5,2.6c-6.1,0-11.3-0.9-15.7-2.6c-4.3-1.7-7.9-4.2-10.6-7.3c-2.8-3.1-4.8-6.8-6-11.1c-1.3-4.3-1.9-8.9-1.9-13.9
        v-7.7h3.6v7.7c0,10.6,2.6,18.4,7.7,23.7c5.2,5.2,12.8,7.8,22.9,7.8c5.2,0,9.7-0.6,13.6-1.8c3.9-1.2,7.2-3.2,9.9-5.9
        c2.7-2.8,4.7-6.4,6.1-11c1.4-4.6,2.1-10.2,2.1-16.9V0L556,0L556,0z" />
    </g>
</svg>
