<svg version="1.1" id="svg_penguin" xmlns="http://www.w3.org/2000/svg" xmlns:xlink="http://www.w3.org/1999/xlink" x="0px" y="0px" viewBox="1191.4 -0.1 306.6 450" enable-background="new 1191.4 -0.1 306.6 450" xml:space="preserve">
    <defs>
        <link type="text/css" xmlns="http://www.w3.org/1999/xhtml" href="../css/penguin.css" rel="stylesheet"></link>
    </defs>
    <g id="body">
        <path fill="none" class="animate" d="M1342.3,24c-3.7-1.1-7.3-2.2-11.3-3.4C1336,25,1339.8,26.1,1342.3,24z" />
        <path fill="none" class="animate" d="M1358.8,23.4c-1.3-0.5-2.4-1-3.8-1.6C1355.6,23.8,1356.9,24.3,1358.8,23.4z" />
        <path fill="none" class="animate" d="M1357.5,5.5c-2.4-1.6-5.1-1.8-7.8-1.8c0,0.2-0.1,0.4-0.1,0.6c2.6,0.6,5.2,1.2,7.8,1.8
		C1357.4,6,1357.4,5.8,1357.5,5.5z" />
        <path fill="none" class="animate" d="M1369.1,44.5c0.7,0,1.3-0.1,2-0.1c0.1-0.2,0.1-0.4,0.2-0.6c-1-0.6-2-1.2-3-1.7c-0.1,0.2-0.3,0.4-0.4,0.6
		C1368.3,43.2,1368.6,43.9,1369.1,44.5z" />
        <path fill="none" class="animate" d="M1335.4,71.6c0.3-1.3-0.2-2.3-1.7-2.8c-0.4,1.4-0.8,2.8-1.2,4.3C1334.2,73.4,1335.2,72.9,1335.4,71.6z" />
        <path fill="none" class="animate" d="M1344.1,52.7c-3.3,1.8-4.6,4.4-3.9,7.2C1342.9,58.3,1343.5,55.7,1344.1,52.7z" />
        <path fill="none" class="animate" d="M1330.3,41.2c-0.4,2.1,0.3,3.5,2.3,5.1C1332.9,42.4,1332.4,41.4,1330.3,41.2z" />
        <path fill="none" class="animate" d="M1408.3,48.4c-0.6-1.1-1.3-2.2-1.9-3.3c-0.2,0.1-0.4,0.2-0.6,0.4c0.6,1.1,1.3,2.2,1.9,3.3
		C1407.9,48.7,1408.1,48.5,1408.3,48.4z" />
        <path fill="none" class="animate" d="M1268.6,172.6c-0.2-0.1-0.3-0.3-0.5-0.4c-1.8,0.3-1.8,1.9-2.4,3c0.2,0.1,0.3,0.2,0.5,0.4
		C1267,174.6,1267.9,173.6,1268.6,172.6z" />
        <path fill="none" class="animate" d="M1377.1,37.4c2.2,0.6,4.6,1.3,6.9,2C1382.9,36.5,1379.1,35.5,1377.1,37.4z" />
        <path fill="none" class="animate" d="M1403.7,56.3c-0.2-4.3-3.1-6.4-5.7-8.6C1399.3,50.8,1400.6,54,1403.7,56.3z" />
        <path fill="none" class="animate" d="M1403,62.8c0.2,0.9,0.3,1.7,0.5,2.5c0.2,0,0.4,0,0.7,0c0.1-0.8,0.4-2.1,0.2-2.2c-1.8-0.8-1.7-2.6-2.3-4
		c-0.9-2.1-1.7-4.2-4.2-5.8c1.2,3.5,2.3,6.6,3.4,9.7C1401.9,62.9,1402.5,62.9,1403,62.8z" />
        <path fill="none" class="animate" d="M1404.9,42.3c-0.5-1.1-1-2.2-1.5-3.4c-0.3,0.1-0.6,0.3-0.9,0.4c0.6,1.1,1.2,2.2,1.8,3.3
		C1404.4,42.5,1404.7,42.4,1404.9,42.3z" />
        <path fill="none" class="animate" d="M1386.3,31.3c1.2,0.7,2.3,1.3,3.4,1.9C1387.5,30.7,1387.5,30.7,1386.3,31.3z" />
        <path fill="none" class="animate" d="M1371.6,30.3c-0.1-0.3-0.2-0.6-0.3-0.9c-1.2,0.4-2.4,0.8-3.6,1.2c0.1,0.2,0.2,0.5,0.2,0.7
		C1369.3,31,1370.4,30.7,1371.6,30.3z" />
        <path fill="none" class="animate" d="M1386.8,43.1c0.8,0.3,1.6,0.6,2.4,0.8c0-0.4,0.2-1.1,0.1-1.1c-0.7-0.3-1.5-0.4-2.3-0.6
		C1387,42.6,1386.9,42.9,1386.8,43.1z" />
        <path fill="none" class="animate" d="M1344.5,47.5c-1.8,0.6-2.1,0.9-2.3,3.4C1343.3,49.8,1345.7,50.1,1344.5,47.5z" />
        <path fill="none" class="animate" d="M1375.9,30.9c2.6,1,4.9,2,7.7,3C1381.8,30.6,1378.7,29.4,1375.9,30.9z" />
        <path fill="none" class="animate" d="M1372,39.3c1.1,0.8,2,1.8,3,2c1.2,0.3,2.6-0.1,3.9-0.2c0.5,0,0.9,0.2,1.4,0.3c1.7,0.3,3.5,0.6,5.2,0.9
		c0-0.2,0.1-0.3,0.1-0.5c-4-1.3-7.9-2.7-12-3.9c-2.3-0.7-4.6-0.5-7.2,1.2c2.2,0.9,3.9,1.6,5.8,2.4C1372.1,40.6,1372.1,40,1372,39.3z
		" />
        <path fill="none" class="animate" d="M1307.2,23.9c1.2,0.2,2.3,0.2,3-1.5c-1.1,0.1-2.1,0.1-3,0.2c-0.2,0-0.5,0.4-0.6,0.7
		C1306.6,23.5,1307,23.9,1307.2,23.9z" />
        <path fill="none" class="animate" d="M1302.6,10.4c-0.1-0.3-0.2-0.5-0.3-0.8c-1.3,0.6-2.7,1.3-4,1.9c0.1,0.2,0.2,0.4,0.2,0.5
		C1299.9,11.5,1301.2,10.9,1302.6,10.4z" />
        <path fill="none" class="animate" d="M1313.9,32.4c3.7,2.1,3.7,2.1,4.7,1.7C1317.3,32.2,1316,31.7,1313.9,32.4z" />
        <path fill="none" class="animate" d="M1317.9,27.3c-2.8-0.8-5.3-0.1-7.6,1.1c3.1,0.3,6.2,0.7,9.5,1C1319.7,28.5,1319.2,27.7,1317.9,27.3z" />
        <path fill="none" class="animate" d="M1282.4,25.2c-0.2-0.2-0.4-0.3-0.6-0.5c-2.4,2.7-4.8,5.5-7.2,8.2c0.2,0.2,0.4,0.4,0.6,0.5
		C1278.5,31.4,1281.4,29,1282.4,25.2z" />
        <path fill="none" class="animate" d="M1291.4,15.6c-1.7,1.2-3.3,2.4-4.9,3.6C1288.9,19.3,1291,17.6,1291.4,15.6z" />
        <path fill="none" class="animate" d="M1319.6,3.3c0-0.3-0.2-0.6-0.2-0.8c-1.7,0.5-3.5,1-5.2,1.6c0.1,0.2,0.1,0.5,0.2,0.7
		C1316.2,4.3,1317.8,3.8,1319.6,3.3z" />
        <path fill="none" class="animate" d="M1280.2,37.5c4.5-2.8,8.9-5.5,13.4-8.3c-0.1-0.2-0.3-0.5-0.4-0.7c-4.9,2.1-9.2,5.1-13.3,8.5
		C1279.9,37.2,1280,37.3,1280.2,37.5z" />
        <path fill="none" class="animate" d="M1342.3,39.2c0.4,1.3-1.3,2.8,0.7,3.9c0.6-1.2,1.2-2.3,1.9-3.5C1343.8,39.4,1343.3,39.3,1342.3,39.2z" />
        <path fill="none" class="animate" d="M1289.2,27.9c1.3-0.9,2.6-1.9,3.9-2.9c-0.1-0.1-0.2-0.2-0.3-0.3C1290.2,25.8,1289.4,26.6,1289.2,27.9z" />
        <path fill="none" class="animate" d="M1316.4,21.4c0.9,0.5,1.7,0.9,2.6,1.4c1,0.6,1.9,1.1,3-0.1C1320.5,20.1,1317.6,19.6,1316.4,21.4z" />
        <path fill="none" class="animate" d="M1341.5,17.5c-0.1,0.2-0.1,0.5-0.2,0.7c1.9,0.4,3.7,0.8,5.9,1.3C1346.1,17.5,1345,17.2,1341.5,17.5z" />
        <path fill="none" class="animate" d="M1349.9,26.8c-2-0.7-4-1.4-6-2.2C1347.3,27.2,1348.3,27.6,1349.9,26.8z" />
        <path fill="none" class="animate" d="M1342.3,13.1c0-0.2,0.1-0.4,0.1-0.6c-2.8-2.1-5.9-2.7-7.5-1.2C1337.4,12,1339.8,12.5,1342.3,13.1z" />
        <path fill="none" class="animate" d="M1339.8,5.7c2.3-0.1,4.1-0.2,6.2-0.3C1344.1,4.2,1341.9,4.3,1339.8,5.7z" />
        <path fill="none" class="animate" d="M1319.7,16.1c2.6,0.3,4.9,0.5,7.5,0.8C1324.5,14.6,1321.7,14.3,1319.7,16.1z" />
        <path fill="none" class="animate" d="M1330.8,10.6c-3.3-0.4-6.5-0.9-9.9,1.2C1326.4,12.8,1329.7,12.3,1330.8,10.6z" />
        <path fill="none" class="animate" d="M1337.2,3c0-0.2-0.1-0.5-0.1-0.7c-2.6,0.3-5.1,0.7-7.7,1c0,0.2,0.1,0.5,0.1,0.7
		C1332.2,3.6,1334.6,3.3,1337.2,3z" />
        <path fill="none" class="animate" d="M1337.3,40.4c1.9-1.8,1.9-3.1-0.2-4.3C1337.2,37.7,1337.2,38.9,1337.3,40.4z" />
        <path fill="none" class="animate" d="M1226.6,215.1c-0.2,0-0.3,0-0.5,0c-0.2,1.6-0.5,3.2-0.7,4.8c0.3,0,0.5,0.1,0.8,0.1
		C1226.4,218.4,1226.4,216.7,1226.6,215.1z" />
        <path fill="none" class="animate" d="M1323.3,429.6c-0.6-0.5-1.2-0.9-1.5-1.1c-0.8,0.2-1.6,0.5-2.6,0.8c-0.1,0.8-0.3,1.8-0.5,3
		C1320.8,431.9,1322.4,431.3,1323.3,429.6z" />
        <path fill="none" class="animate" d="M1447.9,215.3c0.5,1.7,1,3.2,1.5,4.6C1450.3,217.4,1449.8,216.2,1447.9,215.3z" />
        <path fill="none" class="animate" d="M1228.4,243.6c-0.1,1.3-0.2,2.4-0.3,3.6C1229.9,245.5,1229.9,244.5,1228.4,243.6z" />
        <path fill="none" class="animate" d="M1223.4,233.7c-0.2,5.1-4,9.9-1.7,15.3C1222.6,243.9,1224.9,239,1223.4,233.7z" />
        <path fill="none" class="animate" d="M1211.7,240c-0.2,0-0.3,0-0.5,0c-0.1,2-0.3,4-0.4,6.1c0.2,0,0.4,0,0.5,0C1211.5,244.1,1212.7,242.2,1211.7,240
		z" />
        <path fill="none" class="animate" d="M1226.2,197.4c-2.7,5.6-4.6,8.4-2.8,11.1C1224.4,204.7,1226.9,201.7,1226.2,197.4z" />
        <path fill="none" class="animate" d="M1447.2,245.2c0.8,2.1,1.8,4.1,2.7,6.2c-0.1,0,0,0,0,0c1-1.9-0.5-8.7-2.1-9.9c-0.2-0.2-0.7-0.2-0.9,0
		c-0.2,0.1-0.5,0.6-0.4,0.8C1446.7,243.3,1446.8,244.3,1447.2,245.2z" />
        <path fill="none" class="animate" d="M1215.9,241.2c0.2,0,0.3,0,0.5,0c0.2-1.2,0.5-2.4,0.8-3.9c-0.7-0.2-1.2-0.3-2.2-0.5
		C1215.2,238.5,1215.5,239.8,1215.9,241.2z" />
        <path fill="none" class="animate" d="M1214,256.7c0.3-2.4,0.6-4.9,0.9-7.5C1212.4,250,1211.9,254.8,1214,256.7z" />
        <path fill="none" class="animate" d="M1407.1,50.6c0.5,3,0.3,6.3,2.5,8.8C1409.7,56.2,1409.8,53,1407.1,50.6z" />
        <path fill="none" class="animate" d="M1417.8,198.2c-1.2-2.2-2.3-4.5-3.5-6.7C1413.7,194.7,1414.9,197.2,1417.8,198.2z" />
        <path fill="none" class="animate" d="M1414.6,147.6c0.2,0,0.4,0,0.6,0c0-1.6,0-3.2,0-4.8c-0.2,0-0.4,0-0.6,0C1414.6,144.4,1414.6,146,1414.6,147.6z
		" />
        <path fill="none" class="animate" d="M1441.7,233.2c0.7,1.3,1.8,2.5,2.8,3.8c0.3-0.1,0.8-0.3,1.4-0.4c-0.6-2.6-1.7-4.7-4.3-6.5
		C1441.6,231.4,1441.3,232.5,1441.7,233.2z" />
        <path fill="none" class="animate" d="M1415.5,90.2c0.1,1.8-1.7,2.8-0.6,4.5C1416.3,93.1,1416.4,92,1415.5,90.2z" />
        <path fill="none" class="animate" d="M1415.9,89.8c1.6-2.1,1.3-4.3-0.9-5.6C1415.3,86.2,1414.3,88.1,1415.9,89.8z" />
        <path fill="none" class="animate" d="M1410.9,195.6c0.2,1.4,0.4,2.7,0.6,4.1c0.5,0,1,0.1,2,0.1c-0.8-1.8-1.5-3.1-2.1-4.5
		C1411.3,195.4,1411.1,195.5,1410.9,195.6z" />
        <path fill="none" class="animate" d="M1410.1,156.6c-0.7-1.2-1.3-2.3-2-3.5c-0.2,0.1-0.5,0.3-0.7,0.4c0.6,1.2,1.2,2.4,1.8,3.6
		C1409.5,156.9,1409.8,156.8,1410.1,156.6z" />
        <path fill="none" class="animate" d="M1410.4,190c-0.4-1.5-0.7-2.7-1-3.9C1408,186.7,1408.3,188.3,1410.4,190z" />
        <path fill="none" class="animate" d="M1408.5,63.8c0.8,3.9,1.5,7.8,2.3,11.7c0.2,0,0.5-0.1,0.7-0.1c0.8-4.2-0.1-8.1-2.5-11.7
		C1408.8,63.7,1408.7,63.7,1408.5,63.8z" />
        <path fill="none" class="animate" d="M1431.3,219c0.3-2.3-0.8-4.3-2.1-4.6C1429.8,216,1430.6,217.5,1431.3,219z" />
        <path fill="none" class="animate" d="M1425.9,199c0.9,1.9,1.8,3.8,2.7,5.7c0.3-0.1,0.5-0.2,0.8-0.4c-0.8-1.9-1.6-3.8-2.4-5.8
		C1426.7,198.7,1426.3,198.8,1425.9,199z" />
        <path fill="none" class="animate" d="M1440.7,207.4c-0.9-0.5-1.4-1.8-1.8-2.8c-0.9-2.4-1.6-4.9-2.5-7.3c-0.5-1.1-1.4-2.1-2.1-3.1
		c-0.2,0.1-0.4,0.2-0.6,0.3c3.1,5.8,3.7,12.8,8.3,18.4C1442.3,210.7,1442.9,208.8,1440.7,207.4z" />
        <path fill="none" class="animate" d="M1438.7,181.3c-0.1,3.3,1,6.1,3.5,8.6C1442.3,185.8,1440.9,182.4,1438.7,181.3z" />
        <path fill="none" class="animate" d="M1422.3,171.4c-0.5-1.5-1-3-1.5-4.5c-0.3,0.1-0.5,0.2-0.8,0.3c0.6,1.5,1.1,3,1.7,4.5
		C1421.8,171.6,1422,171.5,1422.3,171.4z" />
        <path fill="none" class="animate" d="M1418.7,184c0,3.1,1.4,5.1,3.2,7C1421.3,188.5,1421.1,185.9,1418.7,184z" />
        <path fill="none" class="animate" d="M1421.6,147.6c-0.6-1-1-1.7-0.4-2.9c0.7-1.5,0.2-3-0.9-4.3c0,3.3,0,6.5,0,9.6c0.9,0.2,1.6,0.3,2.8,0.6
		C1422.5,149.3,1422.3,148.3,1421.6,147.6z" />
        <path fill="none" class="animate" d="M1425,176c-0.4,4.2,1.8,7.4,4.3,11.1C1429.2,182.6,1426.8,179.4,1425,176z" />
        <path fill="none" class="animate" d="M1313.9,20.4c0.1-0.1,0.3-0.3,0.4-0.4c-0.4-0.5-0.8-1.2-1.3-1.3c-0.6-0.2-1.4,0.1-2.1,0.1c0,0.2,0,0.3,0.1,0.5
		C1311.9,19.7,1312.9,20,1313.9,20.4z" />
        <path fill="none" class="animate" d="M1362.6,434.8c1.7-0.8,3.6-0.4,4.5-2.3C1364.3,432.1,1363,432.6,1362.6,434.8z" />
        <path fill="none" class="animate" d="M1402.1,413.1c0.1,0.6,0.2,1.3,0.3,1.9c-0.1,0.1-0.3,0.1-0.4,0.2c-1.2-2.4-2.4-4.8-3.6-7.2
		c-1.2-2.5-2.4-4.9-3.6-7.4c1.4-1.1,2.1-0.1,2.7,0.9c0.4,0.7,0.8,1.5,1.2,2.2c0.4,0.6,1,1.1,1.5,1.7c0.1-0.1,0.2-0.2,0.3-0.3
		c-1-2.4-2-4.8-3.1-7.3c-2.1,1.2-4.1,2.2-6,3.4c-1.2,0.7-1.8,1.5,0,2.3c0.2,0.1,0.3,0.5,0.5,0.8c-0.1,0.2-0.2,0.2-0.2,0.2
		c-0.2,0.1-0.3,0.2-0.5,0.1c-2.4-0.1-4.4,0.5-5.7,2.8c-0.4,0.7-1.1,1.3-1.7,1.9c-3.3,3.1-6.7,6.1-10.2,9.2c1.4,2.1,0,3.6-1.3,5.3
		c-1,1.3-1.8,2.7-2.7,4.1c-0.6,0.3-1.3,0.7-2,1.1c0.5,0.9,1.1,1.7,1.6,2.6c0.2-0.1,0.3-0.2,0.5-0.3c0-0.7,0.1-1.4,0.2-2.4
		c4,1.2,6.8-1.4,10.1-2.9c0,0.7,0.1,1.2,0.1,1.4c-0.8,0.5-1.5,0.8-2.2,1.2c0.1,0.2,0.2,0.3,0.2,0.5c1-0.4,2.1-0.8,3.1-1.3
		c1.2-0.5,1.9-0.4,2.3,1.2c0.7,2.9,1.6,5.8,2.8,8.5c1,2.3,2.9,3.6,5.5,3.7c1.1,0,1.7-0.4,2.1-1.5c0.9-3,1.8-5.9,2.9-8.9
		c0.6-1.7,0.8-3.8,3.5-3.4c-0.2-0.4-0.2-0.6-0.3-0.7c-1.6-0.7-0.8-1.7-0.1-2.4c0.7-0.8,1.4-0.5,2,0.4c0.2,0.4,0.9,0.4,1.4,0.6
		c-0.1-0.6,0-1.3-0.3-1.7c-0.5-0.8-1.3-1.5-2-2.3c0.2-0.2,0.3-0.4,0.5-0.6c1.3,0.8,2.6,1.7,4.2,2.8c0.5,3.9,3.5,6.7,7.5,6.7
		c-0.4-1-0.7-1.9-1.2-3.2c2.1,0.5,1.5,3.7,4,2.9c0.5-1.8,0-3.3-0.8-4.8c-0.9-1.5-2-2.9-2.6-4.5c-0.7-2-1.8-2.2-3.7-1.7
		c1.1,2.2,2.2,4.3,3.5,7c-0.9-0.4-1.7-0.4-2-0.8c-0.6-0.8-0.9-1.8-1.3-2.7c-0.3-0.7-0.5-1.8-1-2c-2.4-0.8-2.9-2.8-3.8-4.7
		c-0.5-1-1.2-2-1.8-3C1402.4,412.9,1402.3,413,1402.1,413.1z" />
        <path fill="none" class="animate" d="M1419.6,436.4c-0.4,1.2-0.2,2.4,1.4,3c0.8,0.3,1.5,1,2.3,1.4c1,0.4,2.1,0.6,3.2,0.9c0.1-0.2,0.2-0.4,0.3-0.6
		c-0.9-0.8-1.8-1.6-2.7-2.5c-0.8-0.9-1.5-2-2.2-2.9c-0.1-0.2-0.1-0.4-0.2-0.7C1421,435.4,1419.8,435.8,1419.6,436.4z" />
        <path fill="none" class="animate" d="M1269.2,141.1c0.2-2.6,0.3-5.2,0.5-7.9c-0.2,0-0.3,0-0.5,0C1269.2,135.9,1267.9,138.4,1269.2,141.1z" />
        <path fill="none" class="animate" d="M1415.9,433c0.9,1.2,2.6,1.4,4.6,0.4c-1.1-0.9-2-1.8-3-2.4c-0.3-0.2-1.2,0.2-1.6,0.6
		C1415.7,431.9,1415.7,432.7,1415.9,433z" />
        <path fill="none" class="animate" d="M1450.9,306c-0.3,0.6-0.2,1.3-0.5,1.9c-0.9,2.6-1.9,5.1-2.9,7.6c3.6-2.5,3.6-6.6,4.9-10
		c-0.2-0.1-0.3-0.3-0.5-0.4C1451.7,305.3,1451.2,305.6,1450.9,306z" />
        <path fill="none" class="animate" d="M1308.4,411.8c-0.6-1-1.3-1.9-1.9-2.9c-0.2,0.1-0.4,0.3-0.6,0.4c0.5,1,1.1,2,1.6,3
		C1307.7,412.1,1308,411.9,1308.4,411.8z" />
        <path fill="none" class="animate" d="M1297.7,392.2c1,1.5,1.9,3,2.9,4.5c0.2-0.1,0.5-0.3,0.7-0.4c-0.9-1.5-1.8-3.1-2.7-4.6
		C1298.4,391.9,1298,392.1,1297.7,392.2z" />
        <path fill="none" class="animate" d="M1387.3,388.8c0.1-0.2,0.2-0.4,0.3-0.7c-3.1-2.2-6.1-4.5-9.3-6.6c-1.8-1.1-3.8-1.1-5.9-0.1
		c1.5,2.1,3.3,3.3,5.8,3.6c0.6,0.1,1.3,0.5,1.7,0.9C1382.3,387.8,1384.6,388.6,1387.3,388.8z" />
        <path fill="none" class="animate" d="M1307.2,376.9c3.3-2.6,6.7-5.2,10-7.7c-0.1-0.2-0.2-0.3-0.4-0.5C1313.9,368.5,1307,373.8,1307.2,376.9z" />
        <path fill="none" class="animate" d="M1307.4,425.1c0.4,1,1,2.1,1.7,2.9c0.7,0.7,1.8,0.9,2.7,1.3c0.2-0.2,0.4-0.5,0.6-0.7
		c-3.4-6.3-6.8-12.7-10.3-19c-0.2,0.1-0.4,0.2-0.7,0.2c0.5,1.5,1,2.9,1.5,4.3C1304.4,417.8,1305.9,421.5,1307.4,425.1z" />
        <path fill="none" class="animate" d="M1376.9,400.6c-0.2-0.1-0.4-0.2-0.6-0.3c-0.9,1.5-2.7,2.5-2,5.3C1375.3,403.6,1376.1,402.1,1376.9,400.6z" />
        <path fill="none" class="animate" d="M1386.5,397.5c0.9-0.6,1.6-1.2,2.3-1.7C1386.5,395.2,1386.3,395.4,1386.5,397.5z" />
        <path fill="none" class="animate" d="M1373.4,406.6c-0.2-0.1-0.5-0.3-0.7-0.4c-0.6,1.1-1.2,2.2-1.8,3.2c0.2,0.1,0.3,0.2,0.5,0.3
		C1372.1,408.7,1372.7,407.7,1373.4,406.6z" />
        <path fill="none" class="animate" d="M1383.3,392.6c-1.7,2.9-3.4,5.7-5.1,8.5C1382.3,398,1384,394.9,1383.3,392.6z" />
        <path fill="none" class="animate" d="M1460.2,268.9c0.3-2.3,0.9-4.1-0.5-5.8C1459.7,264.8,1458.6,266.7,1460.2,268.9z" />
        <path fill="none" class="animate" d="M1456.3,281c0.6,2.2,1.1,4.4,1.7,6.5c0.2,0,0.3-0.1,0.5-0.1C1458.4,285,1458.3,282.7,1456.3,281z" />
        <path fill="none" class="animate" d="M1469.2,244.5c-1.1,2.2-0.7,3.7,1.4,4.7C1470.2,247.8,1469.7,246.3,1469.2,244.5z" />
        <path fill="none" class="animate" d="M1469.7,253.6c0.1,1.8,0.2,3.1,0.2,4.3c0.2,0,0.4,0,0.6,0C1471.3,255.1,1471.3,255.1,1469.7,253.6z" />
        <path fill="none" class="animate" d="M1396.9,158.8c0.2,1.1,0.5,2.2,0.7,3.3c0.3-0.1,0.6-0.1,0.9-0.2c-0.3-1.1-0.5-2.2-0.8-3.3
		C1397.4,158.7,1397.1,158.8,1396.9,158.8z" />
        <path fill="none" class="animate" d="M1451.6,267.6c1.2-0.1,1.4,0.6,1.6,1.9c0.3,1.8,1,3.6,1.6,5.4c0.2-0.1,0.3-0.1,0.5-0.2
		c0.3-4.1-1.1-7.7-3.4-11.2C1451.7,265,1451.7,266.3,1451.6,267.6z" />
        <path fill="none" class="animate" d="M1402.8,142.2c-0.4,3.5-0.8,7,1.2,10.2C1404.3,148.9,1405,145.4,1402.8,142.2z" />
        <path fill="none" class="animate" d="M1403.8,134.4c-0.1-0.2-0.3-0.4-0.4-0.6c-1.1,0.3-2.2,0.5-3.3,0.8c0.2,2.1,1.6,1.2,2.5,1.1
		C1403,135.7,1403.4,134.9,1403.8,134.4z" />
        <path fill="none" class="animate" d="M1271.2,150c-0.3,3.5-1.6,7.1,0.1,10.6C1271.5,157,1272.2,153.5,1271.2,150z" />
        <path fill="none" class="animate" d="M1399.4,141.2c0-1,0-2.1,0-3.1C1398.3,140.1,1398.3,140.5,1399.4,141.2z" />
        <path fill="none" class="animate" d="M1405.3,161.2c0.2-0.1,0.5-0.2,0.7-0.3c-0.7-1.7-1.3-3.4-2-5c-0.2,0.1-0.5,0.2-0.7,0.2
		C1403.9,157.8,1403.3,160.1,1405.3,161.2z" />
        <path fill="none" class="animate" d="M1400.5,400.4c1.2,1.4,0.8,4,3.4,4.4C1403,403.2,1403.3,400.6,1400.5,400.4z" />
        <path fill="none" class="animate" d="M1258.9,140.1c-0.1,0.7-0.2,1.4-0.3,2.3c2.6-3.6,3.4-11.7,1.7-14.6c-1.7,6.1-3.5,12.5-5.3,18.9
		c-0.6-0.1-1.1-0.1-1.7-0.2c-0.1,0.2-0.2,0.4-0.2,0.6c1,0.4,2,0.8,3.1,1.2C1257.5,145.7,1255.9,142.2,1258.9,140.1z" />
        <path fill="none" class="animate" d="M1250.5,177.4c-0.8,3-1.5,5.8-2.3,8.7C1250.9,184.4,1251.9,179.9,1250.5,177.4z" />
        <path fill="none" class="animate" d="M1294.9,391.1c-0.2-0.6-1.1-0.9-1.7-1.4c-0.1,0.2-0.3,0.3-0.4,0.5c1.5,6,4.1,11.5,7.7,16.7
		C1298.6,401.5,1296.9,396.3,1294.9,391.1z" />
        <path fill="none" class="animate" d="M1248.4,196.5c1.4-1.2,1.4-1.3,1.4-7.7C1247.9,190.2,1247.4,193.9,1248.4,196.5z" />
        <path fill="none" class="animate" d="M1251.9,198.2c2.2-1.2,2.5-2.4,0.9-3.7C1252.4,195.8,1252.2,196.9,1251.9,198.2z" />
        <path fill="none" class="animate" d="M1241.7,171.9c0.3-0.7,1.1-1.5-0.7-1.9c-0.1,1.5-0.2,2.9-0.4,4.2c0.1,0,0.2-0.1,0.2-0.1
		C1241.2,173.5,1241.4,172.7,1241.7,171.9z" />
        <path fill="none" class="animate" d="M1246.9,167.2c0.7-3.6,3-6.8,2.3-11.1C1245.2,161.8,1244.4,165.2,1246.9,167.2z" />
        <path fill="none" class="animate" d="M1243.9,185.6c-1.8,1.9-1.9,3-0.8,4.2C1243.2,188.5,1243.5,187.3,1243.9,185.6z" />
        <path fill="none" class="animate" d="M1238.4,226.3c0.4-0.6,0.9-1.2,1-1.9c0.1-0.4-0.3-1-0.6-1.5c-0.2,0-0.3,0.1-0.5,0.1c-0.2,1-0.5,1.9-0.7,2.9
		C1237.7,226,1238,226.2,1238.4,226.3z" />
        <path fill="none" class="animate" d="M1263.5,50.6c-0.8,1.7-1.5,3.4-2.3,5.1C1263.6,54.5,1264.4,52.3,1263.5,50.6z" />
        <path fill="none" class="animate" d="M1258.9,126.1c0-1.5,0-3,0-4.5c-0.1,0-0.3,0-0.4,0c-0.1,1.5-0.3,3-0.4,4.4
		C1258.2,126.1,1258.5,126.1,1258.9,126.1z" />
        <path fill="none" class="animate" d="M1264.9,116c-0.1,0-0.3,0-0.4,0c0,2.4,0,4.7,0,7.1c0.1,0,0.3,0,0.4,0C1264.9,120.7,1264.9,118.3,1264.9,116z" />
        <path fill="none" class="animate" d="M1268.9,111.6c0.2,2.2,0,4.5,1.6,6.4C1270.2,115.8,1270.9,113.4,1268.9,111.6z" />
        <path fill="none" class="animate" d="M1264.6,167.6c0.2,0,0.4,0,0.6,0c0-2.1,0-4.1,0-6.2c-0.2,0-0.4,0-0.6,0
		C1264.6,163.5,1264.6,165.5,1264.6,167.6z" />
        <path fill="none" class="animate" d="M1262.2,179.3c-0.3,0.9-0.4,1.9-0.6,3.1c1.5-0.5,2.2-1.4,2.3-2.7c0-0.4-0.5-0.8-0.7-1.3
		C1262.7,178.7,1262.2,179,1262.2,179.3z" />
        <path fill="none" class="animate" d="M1259.2,93c-0.1,0-0.3,0-0.4,0c0.1,3.2-1.7,6.3,0.4,9.5C1259.2,99.3,1259.2,96.1,1259.2,93z" />
        <path fill="none" class="animate" d="M1258.9,64.2c-0.4,1.5-0.7,3-1.1,4.7C1259.5,67.1,1259.9,65.6,1258.9,64.2z" />
        <path fill="none" class="animate" d="M1252.4,157.1c1.6-3.4,1.9-5.3,1.1-6.2c-0.6,0.8-1.2,1.5-1.9,2.3C1250.9,154,1251.4,156.4,1252.4,157.1z" />
        <path fill="none" class="animate" d="M1267.9,400.2c-4.5,5.1-7.5,10.5-7.3,12.9C1263.2,408.8,1267,405.6,1267.9,400.2z" />
        <path fill="none" class="animate" d="M1281.6,418.7c-0.5-1.6-1.1-3.1-1.7-4.7c-0.3,0.1-0.6,0.2-0.9,0.3c0.3,1.6,0.6,3.1,0.9,4.7
		c0.1,0.3,0.7,0.6,1,0.5C1281.4,419.5,1281.7,418.9,1281.6,418.7z" />
        <path fill="none" class="animate" d="M1260.2,425.7c-0.1-1.3,1-3-1.2-4C1258.7,423.5,1258.4,425,1260.2,425.7z" />
        <path fill="none" class="animate" d="M1264.9,410.9c0.1,0.1,0.3,0.2,0.4,0.3c4-2.7,7-6.1,8.3-10.8c-2.6,1.5-2.6,5.6-6.1,5.9
		C1266.5,407.9,1265.7,409.4,1264.9,410.9z" />
        <path fill="none" class="animate" d="M1263,418.3c-1.8,1.8-1.2,4.9,1.1,6.3C1263.4,422.6,1264.7,420.3,1263,418.3z" />
        <path fill="none" class="animate" d="M1261.2,426.8c-0.1,0.6-0.2,1.2-0.4,1.9c-0.9-0.4-1.6-0.6-2.3-0.9c-0.1,0.3-0.2,0.5-0.3,0.8
		c0.7,0.2,1.4,0.8,2,0.6c1.6-0.4,3.1-1.1,3.5-3.1c-0.7-0.4-1.3-0.7-2-1.1C1261.5,425.7,1261.4,426.3,1261.2,426.8z" />
        <path fill="none" class="animate" d="M1264.6,416.3c0.5,1.6,0.9,2.8,1.2,3.9c0.3,1.1,0.1,2.5,2.1,2.9c-0.3-2.8-0.6-5.5-1-8.8
		C1265.9,415.3,1265.2,415.9,1264.6,416.3z" />
        <path fill="none" class="animate" d="M1281.4,380.9c-3.8-5.1-7.7-10-11.3-15.1c-3.5-5-6.7-10.3-10.1-15.5C1259.9,355.6,1275.5,378.1,1281.4,380.9z" />
        <path fill="none" class="animate" d="M1256.2,425.9c-1,1.8-0.8,2.7,1.1,3.2c-0.2-1.2-0.4-2.3-0.6-3.3C1256.5,425.8,1256.4,425.8,1256.2,425.9z" />
        <path fill="none" class="animate" d="M1238.2,177.1c-2.3,4.1-3.5,12.5-2.4,16.7C1236.5,188.1,1237.4,182.9,1238.2,177.1z" />
        <path fill="none" class="animate" d="M1254.6,341.1c0.2-0.1,0.3-0.2,0.5-0.2c-1.6-3.1-3.3-6.2-4.9-9.3C1250.4,335.3,1252,338.5,1254.6,341.1z" />
        <path fill="none" class="animate" d="M1236.7,203.3c0.5-2.6,1-5.2,1.5-7.8c-0.2,0-0.4-0.1-0.6-0.1C1236.4,197.3,1235.7,201.5,1236.7,203.3z" />
        <path fill="none" class="animate" d="M1288.6,392.3c-0.7-0.5-1.2-1.2-1.8-0.5c2.6,5.6,5.1,11,7.5,16.4c-0.2,0.1-0.4,0.2-0.6,0.3
		c-4.5-5.3-5.3-12.7-10.3-17.9c-1.4,2-2.7,4-4,5.8c-1.1,1.6-1.2,3.1-0.4,4.8c0.7,1.4,1.4,2.9,2,4.4c0.8,1.8,1.6,3.6,2.3,5.4
		c-3.5-2.9-4.5-7.2-6.6-10.8c-3.2,4.3-6.2,8.5-9,12.3c1.1,3,2,5.4,2.9,7.9c0.3,0,0.7-0.1,1-0.1c0.1-1.4,0.4-2.8,0.4-4.2
		c0-1.6-0.3-3.2-0.3-4.8c0-0.7,0.6-1.3,0.9-2c0.2,0.1,0.4,0.1,0.5,0.2c0.4,2.9,0.9,5.8,1.3,8.6c-0.4,0.2-0.9,0.4-1.5,0.6
		c1.4,1.9,3.2,0.6,4.8,1.2c1-5.2-2.7-9.6-2-15.2c1.2,1,2.6,1.5,3,2.4c1.8,4,3.3,8.1,4.8,12.2c1,2.8,1.6,5.7,2.4,8.6
		c-0.2,0-0.3,0.1-0.5,0.1c-0.9-2.3-1.8-4.5-2.8-6.8c-0.2,0.1-0.5,0.2-0.7,0.3c0.4,1.2,0.9,2.4,1.2,3.7c0.4,1.3,0.6,2.5,1,4.1
		c-1.3-0.3-2-0.5-2.8-0.7c0.2,3.5,0.4,6.8,0.7,10.3c1.7-1.4,3-2.5,4.3-3.6c3.3-2.7,3.9-5.3,2-9.2c-0.3-0.7-0.8-1.3-1.1-2.1
		c-0.5-1.3-0.9-2.6-1.3-3.9c0.1,0,0.2,0,0.3-0.1c1.1,1.8,2.2,3.5,3.3,5.3c0.9-0.7,1.7-1.9,2.5-1.9c1.9-0.1,1.6-1.3,1.4-2.3
		c-0.2-1.1-0.8-2.1-1.2-3.2c-0.3-0.9-0.4-1.8-0.5-2.6c0.2-0.1,0.4-0.1,0.6-0.2c0.3,0.8,0.7,1.6,1.1,2.6c0.9,0,1.8,0,3.3,0
		c-0.9-2.6-1.7-5-2.6-7.4c0.2-0.1,0.3-0.1,0.5-0.2c2.6,5.6,5.2,11.3,10.5,15.1c-2.2-11.1-8.4-20.5-12.5-29.9
		C1291,394,1289.7,393.2,1288.6,392.3z" />
        <path fill="none" class="animate" d="M1235.4,229.2c-0.2,2.2-0.5,4.4-0.7,6.5C1236.2,233.7,1236.4,231.5,1235.4,229.2z" />
        <path fill="none" class="animate" d="M1241.2,319.3c0.7,1.7,1.4,3.5,2.1,5.2c0.2-0.1,0.5-0.2,0.7-0.3c-0.7-1.7-1.3-3.5-2-5.2
		C1241.7,319.1,1241.4,319.2,1241.2,319.3z" />
        <path class="animate" d="M1229.4,287.9c0.3,0.5,0.4,1,0.5,1.5c2,7.3,3.9,14.6,6.1,21.8c1.3,4.1,3.4,7.9,4.7,12c3,9.8,7.3,18.9,12.6,27.6
		c5.4,8.8,10.9,17.6,16.4,26.5c0.7,1.2,1,2.7,3,2.6c0.6,0,1.2,0.8,1.8,1.4c0.7,0.7,1.3,1.6,2,2.3c1.3,1.3,1.1,2.8-0.6,3.5
		c-0.5,0.2-1.1,0.2-1.7,0.4c-0.6,2.7-1.4,5.4-3.2,7.3c-0.9-0.7-1.6-1.3-2.3-2c-0.2,0.2-0.4,0.4-0.6,0.5c0.4,0.6,0.7,1.2,1.1,1.8
		c0.5,0.8,0.8,1.4-0.1,2.2c-3.8,3.1-6.4,7.2-8.7,11.5c-3.6,7-6.1,14.5-11.2,20.8c2.7,1,1.2,3.3,1.8,5.2c0.7-0.4,1.4-0.7,2.1-1.1
		c-1.2-1.4-0.7-3.3,1.3-5.1c2,1.1,2.5,2.8,2.2,4.9c3.5,0.2,3.5,0.1,6.2-1.5c4.5-2.7,9-5.3,13.5-7.9c1.2-0.7,2.5-1.2,4.1-1.9
		c-0.1,1.1-0.3,1.8-0.3,2.5c0,3.4-0.1,6.8,0.2,10.2c0.2,2.2,0.9,4.4,3.1,5.6c1-0.9,1.9-1.7,2.8-2.5c0,0.2,0,0.4,0,0.6
		c0.8,0.2,1.5,0.6,2.3,0.6c0.4,0,0.8-0.8,1.2-1.3c0.3-0.4,0.4-1,0.7-1.5c2-4.2,4-8.4,6-12.8c0.2-0.1,0.7-0.3,1.2-0.4
		c0.4-0.1,0.8-0.1,1.2-0.1c-2.2,1.5-2.4,1.7-0.6,3.6c1.3,1.4,2.8,3,4.6,3.7c5,1.9,10.1,3.4,15.1,5c0.5,0.2,1.3-0.2,1.7-0.6
		c2-1.8,3.9-3.7,5.8-5.6c0.3-0.4,0.4-1.4,0.2-1.8c-1.6-3.1-3.3-6.1-5.2-9c-6-9.1-12.1-18.2-18.1-27.3c-0.8-1.2-1.5-2.4-2.2-3.7
		c9.9-4.8,19.4-9.9,26.9-18.2c-0.4,0-0.6,0-0.7,0.1c-4,2.5-7.9,4.9-11.8,7.4c-3.2,2.1-6.2,4.3-9.4,6.3c-1.6,1-3.4,1.5-5.1,2.2
		c-0.1-0.2-0.2-0.3-0.2-0.5c3.1-2.7,6.2-5.5,9.4-8.1c3.1-2.6,6.2-5.2,9.5-7.4c2.8-1.9,5.9-2.6,9.1-0.7c0.3,0.2,1.1-0.1,1.5-0.4
		c0.7-0.5,1.3-0.6,1.4,0.4c0.2,1.2,0.9,1.1,1.9,0.9c1.7-0.3,3.5-0.8,5.3-0.8c9-0.3,16.7,3.6,24.4,7.8c-1.2,0.7-1.7,1.6-1.2,2.7
		c0.2,0.6,1,1.4,1.5,1.4c2.9-0.1,5.2,1.1,7.3,2.9c3.1,2.6,6.1,5.2,9.1,7.8c-1.5,2.4-3.3,5-4.8,7.7c-4.4,7.6-8.7,15.3-13.1,22.9
		c-1,1.7-2.4,3-0.3,4.8c0.2,0.2,0.3,0.5,0.4,0.8c0.3,0.2,0.6,0.5,0.9,0.7c0.9-1.5,1.8-3,2.7-4.5c0.2,0.2,0.4,0.4,0.6,0.6
		c-0.8,2.9-2.4,5.2-5,6.2c-0.5,2.4-1,4.4-1.5,6.5c-0.4,0-0.6-0.1-0.7-0.1c-0.5,0.1-0.9,0.2-1.4,0.2c0.3,0.4,0.6,1,0.9,1.1
		c1.1,0.2,2.3,0.5,3.3,0.2c1.7-0.4,3.2-1.3,4.9-1.8c2.2-0.6,4.4-1.4,6.6-1.5c1.9,0,3.7,0.4,5.5-0.7c0.5-0.3,1.4,0,2,0
		c-0.2-0.2-0.4-0.4-0.7-0.6c0.6-0.6,1.3-1.1,1.9-1.7c0.3,0.2,0.6,0.4,0.9,0.5c1.1,3,1.9,6,3.2,8.9c1.3,2.9,2.9,5.5,4.4,8.3
		c2.2,0.3,2.4,0,2.1-2.8c1-1.1,1.8-2,2.5-3c0.6-1,1.3-1.6,2.3-1.1c1-2.5,1.9-5.1,3.1-7.4c1.1-2.2,3.1-3.5,5.7-3.2
		c0.4,0.1,1,0.5,1.2,1c0.7,1.7,1.9,2.6,4,2.6c-0.2-0.5-0.3-1.1-0.5-1.6c0.1-0.1,0.2-0.3,0.3-0.4c5.2,5.8,11.5,9.3,19,10.8
		c0.1-0.2,0.2-0.3,0.3-0.5c-0.9-0.5-1.8-1.1-2.9-1.8c0.7-0.2,0.9-0.3,1.2-0.4c2.4-0.6,2.4-0.7,1.2-3c-0.5-1-1-2.1-1.4-3.1
		c0.2-0.1,0.3-0.2,0.5-0.3c1,0.9,2,1.8,3.1,2.7c2.7-4-1.9-11.4-5.8-13.3c0.9,1.7,1.8,3.3,2.9,4.9s2.1,3.2,2.1,5.7
		c-4.4-6.3-10.5-11-12.6-18.7c2.3,2.7,4.4,5.2,6.6,7.8c0.3-0.2,0.5-0.4,0.8-0.6c-1-1.7-1.9-3.5-3.1-5c-1.5-1.8-3.3-3.3-4.9-5
		c-3.3-3.5-4.6-8-6.4-12.2c0.5-0.4,0.9-0.7,1.3-1c-0.1-0.2-0.2-0.3-0.3-0.5c-0.7,0.3-1.4,0.6-2.4,1c0.6-0.9,1-1.4,1.2-1.7
		c-1.5-1.3-3-2.3-4.2-3.6c-1.1-1.2-1.1-2.4,0.2-3.9c2.2-2.3,4.1-4.9,5.9-7.5c0.7-1.1,1-2.4,1.5-3.7c-0.2-0.1-0.4-0.2-0.5-0.3
		c-3,4.1-5.9,8.3-8.9,12.4c-2.2-1.7-2.3-2.9-0.5-4.9c1.8-2,3.6-4,5.5-5.9c2.1-2,4.3-3.9,6.4-5.8c-0.2,0.4-0.4,0.8-0.6,1.1
		c0.1,0.1,0.2,0.2,0.3,0.3c0.2-0.4,0.7-0.7,0.7-1.1c0.1-2.2,2-3.1,3.1-4.5c0.5-0.6,0.8-1.3,1.3-2c1.6-2.2,3.3-4.3,5-6.5
		c0.2-0.2,0.3-0.5,0.4-0.7c0.6-1.2,0.9-2.6,1.8-3.4c1.8-1.5,2.4-3.5,3.2-5.5c0-0.1,0.1-0.2,0.2-0.3c0.5,0.1,1,0.2,1.2,0.3
		c1-1.8,1.8-3.4,2.8-4.9c0.8-1.1,2.1-2,2.7-3.2c2.5-5.1,4.7-10.2,7.2-15.3c2.1-4.3,3.5-9,7.2-12.3c0.6-0.5,0.9-1.4,1-2.2
		c0.4-2.4,0.7-4.7,1.1-7.1c0.3-1.9,0.7-3.8,2.9-5.3l16.6-28.6c0.3-2.9,0.2-5.9-1.2-8.6c-0.4-0.9-0.7-1.8,0.6-2.3
		c0.3-0.1,0.5-0.8,0.4-1.2c0-1.1-0.1-2.2-0.4-3.2c-1.7-8-3.4-15.9-5.2-23.9c-0.1-0.4-0.6-0.8-1-1c-1.7-0.9-2.6-3.8-1.6-5.6
		c0.3,0.6,0.5,1.2,0.9,1.9c0.3-1.8,0.2-1.9-1-2.6c-0.6-0.4-1.4-1-1.6-1.7c-2.7-11.8-7.1-22.9-12.9-33.4
		c-5.1-9.4-10.7-18.4-15.9-27.8c-3.3-5.9-6.1-12-9.2-18.1c-0.3-0.5-0.8-1.4-1.2-1.4c-1.9,0-2.2-1.3-2.5-2.7
		c-0.3-1.6-0.7-3.2-0.6-4.8c0.2-3.2,0.9-6.4,1.2-9.6c0.3-2.5,0.5-5,0.8-7.6c-0.3-0.1-0.6-0.2-0.9-0.3c-0.7,1.1-1.4,2.2-2.3,3.7
		c0.7-7.9,3.8-14.9,3.6-22.6c-1.7,0.1-1.6-0.9-1.5-2.1c0.1-1,0.2-2,0.2-3c0.4-11.6-1.3-22.9-3.6-34.2c-0.3-1.6-0.4-3.2-0.6-4.8
		c0.1,0,0.3-0.1,0.4-0.1c1,2.4,2.1,4.7,3.1,7.1c0.1-0.1,0.3-0.1,0.4-0.2c-0.2-0.6-0.5-1.2-0.7-1.8c-0.9-2.5-1.3-5.3-3.9-6.9
		c-0.2-0.1-0.1-0.5-0.2-0.8c-0.3-0.8-0.5-1.5-0.8-2.3c-0.4-1.1-0.9-2.3-1.5-3.7c-0.1-0.1-0.4-0.6-0.9-1.3c1,0,1.4,0,2.4,0
		c-0.7-0.7-1-1-1.4-1.4c-0.4-0.4-0.9-0.6-1.2-1c-1.1-1.8-2-3.7-3.1-5.4c-1.8-3-3.6-5.9-5.5-8.8c-0.2-0.2-0.3-0.5-0.5-0.7
		c-0.8-1-1.7-2.1-2.5-3.1c-0.6-0.7-1.1-1.6-1.8-2.2c-6.2-4.6-12.5-9.2-18.7-13.7c-0.3-0.2-0.6-0.5-1.1-1c0.6,0,0.8,0,1.4,0
		c-1.7-0.8-3.1-1.5-4.4-2.1c-14.6-6.2-29.8-9-45.5-8.9c-8,0.1-15.8,1-23.2,4.1c-0.8,0.3-1.3,1.1-2,1.6c-0.8,0.6-1.7,1-2.6,1.5
		c-0.1-0.2-0.2-0.3-0.3-0.5c0.4-0.5,0.8-1,1.2-1.5c-0.6-0.1-1.2,0-1.3,0.3c-1.2,2.9-4.2,3-6.5,4.3c-0.7,0.4-1.5,0.8-2.3,1.1
		c-0.1-0.1-0.2-0.3-0.2-0.4c1.8-1.3,3.7-2.6,5.5-3.9c-4.8,1.8-9.1,4.3-13,7.6c-6.3,5.3-12.4,10.7-18.6,16.1c-0.5,0.5-1,1.1-1.4,1.6
		c-4.7,6.8-8.5,14-11.3,21.8c-4.8,12.9-6.7,26.2-4.7,39.9c0.4,3.1,1.4,6.1,1.7,9.2c1.4,12.3,1.6,24.7,0.5,37
		c-0.1,0.8-0.4,1.6-0.9,2.3c-3.2,4.8-6.7,9.5-9.8,14.4c-1.8,2.8-2.7,6.2-4.6,8.9c-3.6,5.2-6.3,10.7-8.8,16.5c-1,2.4-2.1,4.9-3.3,7.1
		c-2.2,4-4.9,7.8-7,11.9c-4.5,9.1-7.3,18.7-9.5,28.7c0.3-0.1,0.6-0.1,1.2-0.2c-0.4,2.5-0.8,4.9-1.3,7.6c-1-1-1.4-1.5-1.9-2
		c-0.3,0.1-0.5,0.2-0.8,0.3c0,2.6,0.1,5.2,0,7.9 M1226.2,197.4c0.8,4.3-1.9,7.3-2.8,11.1C1221.5,205.8,1223.4,203,1226.2,197.4z
		 M1223.4,233.7c1.4,5.3-0.8,10.2-1.7,15.3C1219.4,243.6,1223.2,238.8,1223.4,233.7z M1210.9,246.1c0.1-2,0.3-4,0.4-6.1
		c0.2,0,0.3,0,0.5,0c1,2.1-0.2,4.1-0.4,6.1C1211.2,246.1,1210.9,246.1,1210.9,246.1z M1214,256.7c-2-1.9-1.6-6.7,0.9-7.5
		C1214.5,251.8,1214.2,254.3,1214,256.7z M1216.4,241.1c-0.2,0-0.3,0-0.5,0c-0.3-1.3-0.5-2.7-0.9-4.4c0.9,0.2,1.5,0.4,2.2,0.5
		C1216.9,238.8,1216.5,240,1216.4,241.1z M1226.2,215.1c0.2,0,0.3,0,0.5,0c-0.1,1.6-0.3,3.3-0.4,4.9c-0.3,0-0.5-0.1-0.8-0.1
		C1225.6,218.3,1225.9,216.7,1226.2,215.1z M1226.6,262.1c-0.1,0.5-0.2,0.9-0.3,1.4c-1.6-3.6-0.7-7.2-0.3-10.8
		C1227.2,255.8,1227.2,258.9,1226.6,262.1z M1228.2,247.1c0.1-1.2,0.2-2.3,0.3-3.6C1229.9,244.5,1229.9,245.5,1228.2,247.1z
		 M1319.2,429.3c1-0.3,1.8-0.5,2.6-0.8c0.4,0.3,0.9,0.6,1.5,1.1c-0.9,1.7-2.4,2.3-4.6,2.7C1318.9,431.1,1319,430,1319.2,429.3z
		 M1449.4,219.9c-0.5-1.5-0.9-2.9-1.5-4.6C1449.8,216.2,1450.3,217.4,1449.4,219.9z M1446.8,241.5c0.2-0.1,0.7-0.1,0.9,0
		c1.7,1.3,3.1,8,2.1,9.9c0,0-0.1,0,0,0c-1-2.1-1.9-4.2-2.7-6.2c-0.4-0.9-0.6-1.9-0.7-2.9C1446.4,242,1446.7,241.6,1446.8,241.5z
		 M1445.8,236.6c-0.5,0.2-1.1,0.3-1.4,0.4c-1-1.4-2.1-2.5-2.8-3.8c-0.4-0.7-0.1-1.8-0.1-3.1C1444.1,231.9,1445.3,234,1445.8,236.6z
		 M1442.3,189.9c-2.5-2.6-3.5-5.4-3.5-8.6C1440.9,182.4,1442.3,185.8,1442.3,189.9z M1434.3,194.2c0.7,1,1.6,2,2.1,3.1
		c1,2.4,1.6,4.9,2.5,7.3c0.4,1,0.9,2.3,1.8,2.8c2.2,1.4,1.5,3.3,1.4,5.6c-4.6-5.7-5.2-12.6-8.3-18.4
		C1433.9,194.5,1434.2,194.4,1434.3,194.2z M1431.3,219c-0.7-1.5-1.4-3-2.1-4.6C1430.4,214.7,1431.6,216.8,1431.3,219z
		 M1428.7,204.7c-0.9-1.9-1.8-3.8-2.7-5.7c0.4-0.1,0.7-0.3,1.1-0.4c0.8,1.9,1.6,3.8,2.4,5.8C1429.2,204.4,1428.8,204.5,1428.7,204.7
		z M1425,176c1.8,3.4,4.1,6.6,4.3,11.1C1426.8,183.4,1424.6,180.2,1425,176z M1420.3,140.3c1.1,1.3,1.7,2.8,0.9,4.3
		c-0.6,1.2-0.3,2,0.4,2.9c0.5,0.8,0.9,1.7,1.6,3c-1.3-0.3-2-0.4-2.8-0.6C1420.3,146.8,1420.3,143.6,1420.3,140.3z M1420.7,166.9
		c0.5,1.5,1,3,1.5,4.5c-0.2,0.1-0.5,0.2-0.7,0.3c-0.6-1.5-1.1-3-1.7-4.5C1420.3,167.1,1420.4,167,1420.7,166.9z M1421.9,190.9
		c-1.7-1.9-3.2-3.9-3.2-7C1421.1,185.9,1421.3,188.5,1421.9,190.9z M1415,84.3c2.2,1.3,2.5,3.4,0.9,5.6
		C1414.3,88.1,1415.3,86.2,1415,84.3z M1415.5,90.2c1,1.8,0.8,2.8-0.6,4.5C1413.8,93,1415.6,92,1415.5,90.2z M1415.3,142.8
		c0,1.6,0,3.2,0,4.8c-0.2,0-0.4,0-0.6,0c0-1.6,0-3.2,0-4.8C1414.8,142.8,1415,142.8,1415.3,142.8z M1414.3,191.5
		c1.2,2.2,2.3,4.5,3.5,6.7C1414.9,197.2,1413.7,194.7,1414.3,191.5z M1411.5,75.3c-0.2,0-0.5,0.1-0.7,0.1c-0.8-3.9-1.5-7.8-2.3-11.7
		c0.2,0,0.3,0,0.5-0.1C1411.4,67.2,1412.3,71.1,1411.5,75.3z M1413.5,199.8c-1.1-0.1-1.5-0.1-2-0.1c-0.2-1.4-0.4-2.7-0.6-4.1
		c0.2-0.1,0.3-0.2,0.5-0.2C1412.1,196.7,1412.7,198,1413.5,199.8z M1409.4,186.1c0.3,1.2,0.6,2.4,1,3.9
		C1408.3,188.3,1408,186.7,1409.4,186.1z M1407.3,153.5c0.2-0.1,0.5-0.3,0.7-0.4c0.7,1.2,1.3,2.3,2,3.5c-0.3,0.2-0.6,0.3-0.9,0.5
		C1408.5,155.9,1407.9,154.7,1407.3,153.5z M1409.6,59.4c-2.2-2.5-2-5.8-2.5-8.8C1409.8,53,1409.7,56.2,1409.6,59.4z M1406.4,45.1
		c0.6,1.1,1.3,2.2,1.9,3.3c-0.2,0.1-0.4,0.2-0.6,0.3c-0.6-1.1-1.3-2.2-1.9-3.3C1406,45.4,1406.3,45.3,1406.4,45.1z M1403.3,39
		c0.5,1.1,1,2.2,1.5,3.4c-0.2,0.1-0.4,0.2-0.6,0.3c-0.6-1.1-1.2-2.2-1.8-3.3C1402.7,39.2,1403,39.1,1403.3,39z M1403.7,56.3
		c-3.1-2.3-4.4-5.5-5.7-8.6C1400.7,49.9,1403.5,52,1403.7,56.3z M1402.1,59.1c0.6,1.4,0.5,3.2,2.3,4c0.2,0.1-0.1,1.4-0.2,2.2
		c-0.2,0-0.4,0-0.7,0c-0.2-0.8-0.3-1.6-0.5-2.5c-0.5,0.1-1.1,0.1-1.7,0.2c-1.1-3.1-2.2-6.2-3.4-9.7
		C1400.5,54.8,1401.3,57,1402.1,59.1z M1389.7,33.2c-1.1-0.6-2.2-1.2-3.4-1.9C1387.5,30.7,1387.5,30.7,1389.7,33.2z M1389.3,44
		c-0.8-0.3-1.6-0.6-2.4-0.8c0.1-0.3,0.2-0.6,0.3-0.8c0.8,0.2,1.5,0.3,2.3,0.6C1389.4,42.9,1389.3,43.6,1389.3,44z M1383.5,34
		c-2.7-1.1-5-2-7.7-3C1378.7,29.4,1381.8,30.6,1383.5,34z M1384,39.4c-2.3-0.7-4.7-1.4-6.9-2C1379.1,35.5,1382.9,36.5,1384,39.4z
		 M1371.3,29.4c0.1,0.3,0.2,0.6,0.3,0.9c-1.2,0.3-2.4,0.7-3.6,1c-0.1-0.2-0.2-0.5-0.2-0.7C1368.9,30.2,1370.1,29.8,1371.3,29.4z
		 M1373.6,38c4,1.2,8,2.6,12,3.9c0,0.2-0.1,0.3-0.1,0.5c-1.7-0.3-3.5-0.6-5.2-0.9c-0.5-0.1-0.9-0.3-1.4-0.3c-1.3,0-2.7,0.4-3.9,0.2
		c-1-0.2-1.8-1.2-3-2c0.1,0.7,0.1,1.3,0.2,2.2c-1.9-0.8-3.6-1.5-5.8-2.4C1369.1,37.5,1371.4,37.3,1373.6,38z M1371.3,43.8
		c-0.1,0.2-0.1,0.4-0.2,0.6c-0.7,0-1.3,0.1-2,0.1c-0.4-0.6-0.9-1.2-1.3-1.8c0.1-0.2,0.3-0.4,0.4-0.6
		C1369.3,42.7,1370.3,43.2,1371.3,43.8z M1349.7,3.8c2.7,0,5.4,0.2,7.8,1.8c0,0.2,0,0.4-0.2,0.7c-2.6-0.6-5.2-1.2-7.8-1.8
		C1349.6,4.2,1349.6,4,1349.7,3.8z M1358.8,23.4c-1.9,0.9-3.1,0.4-3.8-1.6C1356.3,22.4,1357.5,22.8,1358.8,23.4z M1330.9,20.6
		c4,1.2,7.6,2.3,11.3,3.4C1339.8,26.1,1336,25,1330.9,20.6z M1337.3,40.4c-0.1-1.5-0.1-2.7-0.2-4.3
		C1339.2,37.3,1339.2,38.6,1337.3,40.4z M1333.7,68.8c1.5,0.5,1.9,1.6,1.7,2.8c-0.3,1.3-1.2,1.8-2.9,1.5
		C1333,71.6,1333.3,70.2,1333.7,68.8z M1330.3,41.2c2.2,0.2,2.6,1.2,2.3,5.1C1330.5,44.7,1329.9,43.2,1330.3,41.2z M1344.1,52.7
		c-0.6,3-1.1,5.6-3.9,7.2C1339.4,57.1,1340.7,54.5,1344.1,52.7z M1342.3,50.9c0.3-2.5,0.5-2.8,2.3-3.4
		C1345.7,50.1,1343.3,49.8,1342.3,50.9z M1343,43.1c-2-1.1-0.3-2.5-0.7-3.9c0.8,0.1,1.5,0.2,2.6,0.3
		C1344.3,40.8,1343.6,41.9,1343,43.1z M1344,24.6c2,0.7,4,1.4,6,2.2C1348.3,27.6,1347.3,27.2,1344,24.6z M1347.3,19.5
		c-2.2-0.5-4.1-0.9-5.9-1.3c0.1-0.2,0.1-0.5,0.2-0.7C1345,17.2,1346.1,17.5,1347.3,19.5z M1346.1,5.4c-2,0.1-3.9,0.2-6.2,0.3
		C1341.9,4.3,1344.1,4.2,1346.1,5.4z M1342.5,12.5c0,0.2-0.1,0.4-0.1,0.6c-2.4-0.6-4.8-1.2-7.3-1.8
		C1336.5,9.8,1339.6,10.4,1342.5,12.5z M1337.2,2.2c0,0.2,0.1,0.5,0.1,0.7c-2.6,0.3-5.1,0.7-7.7,1c0-0.2-0.1-0.5-0.1-0.7
		C1332,2.9,1334.5,2.6,1337.2,2.2z M1330.8,10.6c-1.1,1.7-4.4,2.1-9.9,1.2C1324.3,9.7,1327.6,10.2,1330.8,10.6z M1327.2,16.9
		c-2.7-0.3-4.9-0.5-7.5-0.8C1321.7,14.3,1324.5,14.6,1327.2,16.9z M1321.9,22.7c-1,1.1-2,0.6-3,0.1c-0.8-0.5-1.7-1-2.6-1.4
		C1317.6,19.6,1320.5,20.1,1321.9,22.7z M1319.3,2.5c0.1,0.3,0.2,0.6,0.2,0.8c-1.7,0.5-3.5,1-5.2,1.4c-0.1-0.2-0.1-0.5-0.2-0.7
		C1315.9,3.5,1317.6,3,1319.3,2.5z M1312.9,18.7c0.5,0.2,0.9,0.9,1.3,1.3c-0.1,0.1-0.3,0.3-0.4,0.4c-1-0.4-2-0.7-2.9-1.1
		c0-0.2,0-0.3-0.1-0.5C1311.6,18.7,1312.4,18.5,1312.9,18.7z M1317.9,27.3c1.2,0.3,1.9,1.1,1.9,2.2c-3.2-0.4-6.4-0.7-9.5-1
		C1312.5,27.2,1315.2,26.5,1317.9,27.3z M1318.6,34c-1,0.4-1,0.4-4.7-1.7C1316,31.7,1317.3,32.2,1318.6,34z M1307.2,22.6
		c0.9-0.1,1.8-0.1,3-0.2c-0.7,1.7-1.8,1.7-3,1.5c-0.2,0-0.6-0.4-0.5-0.6C1306.7,23.1,1307,22.6,1307.2,22.6z M1302.4,9.6
		c0.1,0.3,0.2,0.5,0.3,0.8c-1.4,0.6-2.7,1.1-4.1,1.7c-0.1-0.2-0.2-0.4-0.2-0.5C1299.6,10.9,1300.9,10.2,1302.4,9.6z M1293.5,29.2
		c-4.5,2.8-8.9,5.5-13.4,8.3c-0.1-0.2-0.2-0.4-0.4-0.6c4.1-3.3,8.4-6.3,13.3-8.5C1293.2,28.7,1293.4,29,1293.5,29.2z M1293.2,25
		c-1.3,1-2.7,2-3.9,2.9c0.1-1.3,1-2.1,3.6-3.3C1292.9,24.8,1293,24.9,1293.2,25z M1291.4,15.6c-0.4,2-2.5,3.7-4.9,3.6
		C1288.2,18,1289.9,16.8,1291.4,15.6z M1281.9,24.7c0.2,0.2,0.4,0.3,0.6,0.5c-1.1,3.9-3.9,6.2-7.1,8.3c-0.2-0.2-0.4-0.4-0.6-0.5
		C1277.2,30.2,1279.5,27.4,1281.9,24.7z M1268.2,172.2c0.2,0.1,0.3,0.3,0.5,0.4c-0.8,1-1.6,2-2.4,3c-0.2-0.1-0.3-0.2-0.5-0.4
		C1266.4,174.1,1266.4,172.5,1268.2,172.2z M1269.2,133.2c0.2,0,0.3,0,0.5,0c-0.2,2.6-0.3,5.2-0.5,7.9
		C1267.9,138.4,1269.2,135.9,1269.2,133.2z M1268.9,111.6c2,1.7,1.3,4.2,1.6,6.4C1268.9,116.2,1269,113.9,1268.9,111.6z M1264.5,116
		c0.1,0,0.3,0,0.4,0c0,2.4,0,4.7,0,7.1c-0.1,0-0.3,0-0.4,0C1264.5,120.7,1264.5,118.3,1264.5,116z M1265.2,161.4c0,2.1,0,4.1,0,6.2
		c-0.2,0-0.4,0-0.6,0c0-2.1,0-4.2,0-6.2C1264.9,161.4,1265,161.4,1265.2,161.4z M1263.5,50.6c1,1.7,0.1,3.8-2.3,5.1
		C1261.9,54.1,1262.7,52.4,1263.5,50.6z M1263.7,179.7c-0.1,1.3-0.7,2.2-2.3,2.7c0.2-1.2,0.3-2.1,0.6-3.1c0.1-0.4,0.6-0.6,0.9-0.9
		C1263.4,178.9,1263.9,179.3,1263.7,179.7z M1258.9,64.2c0.9,1.3,0.6,2.9-1.1,4.7C1258.2,67.2,1258.5,65.7,1258.9,64.2z M1258.7,93
		c0.1,0,0.3,0,0.4,0c0,3.2,0,6.3,0,9.5C1257,99.3,1258.9,96.2,1258.7,93z M1258.9,121.6c0,1.5,0,3,0,4.5c-0.3,0-0.6,0-0.8,0
		c0.1-1.5,0.3-3,0.4-4.4C1258.5,121.6,1258.7,121.6,1258.9,121.6z M1253.2,146.5c0.6,0.1,1.1,0.1,1.7,0.2c1.8-6.4,3.6-12.8,5.3-18.9
		c1.6,2.8,0.9,10.9-1.7,14.6c0.1-0.9,0.2-1.6,0.3-2.3c-2.8,2.1-1.3,5.6-2.8,8.3c-1.1-0.4-2.1-0.8-3.1-1.2
		C1253,147,1253.2,146.8,1253.2,146.5z M1251.6,153.2c0.7-0.8,1.3-1.5,1.9-2.3c0.8,0.9,0.5,2.8-1.1,6.2
		C1251.4,156.4,1250.9,154,1251.6,153.2z M1251.9,198.2c0.3-1.3,0.6-2.4,0.9-3.7C1254.4,195.8,1254,197,1251.9,198.2z M1248.2,186.1
		c0.8-2.9,1.5-5.8,2.3-8.7C1251.9,179.9,1250.9,184.4,1248.2,186.1z M1249.7,188.8c0,6.4,0,6.5-1.4,7.7
		C1247.4,193.9,1247.9,190.2,1249.7,188.8z M1249.2,156.1c0.7,4.3-1.6,7.5-2.3,11.1C1244.4,165.2,1245.2,161.8,1249.2,156.1z
		 M1243.9,185.6c-0.3,1.6-0.6,2.9-0.8,4.2C1241.9,188.6,1242,187.6,1243.9,185.6z M1241,170.1c1.8,0.4,1,1.1,0.7,1.9
		c-0.3,0.7-0.6,1.5-0.8,2.3c-0.1,0-0.2,0.1-0.2,0.1C1240.9,172.9,1240.9,171.6,1241,170.1z M1238.7,222.9c0.2,0.5,0.6,1.1,0.6,1.5
		c-0.1,0.7-0.6,1.3-1,1.9c-0.3-0.1-0.5-0.2-0.8-0.4c0.2-1,0.5-1.9,0.7-2.9C1238.4,223,1238.6,222.9,1238.7,222.9z M1236.7,203.3
		c-1-1.8-0.3-6,0.9-7.9c0.2,0,0.4,0.1,0.6,0.1C1237.7,198.1,1237.2,200.7,1236.7,203.3z M1238.2,177.1c-0.8,5.8-1.6,11-2.4,16.7
		C1234.6,189.6,1235.9,181.2,1238.2,177.1z M1235.4,229.2c0.9,2.3,0.8,4.5-0.7,6.5C1234.9,233.5,1235.2,231.4,1235.4,229.2z
		 M1243.2,324.5c-0.7-1.7-1.4-3.5-2.1-5.2c0.3-0.1,0.5-0.2,0.8-0.3c0.7,1.7,1.3,3.5,2,5.2C1243.7,324.3,1243.5,324.4,1243.2,324.5z
		 M1254.6,341.1c-2.6-2.6-4.3-5.7-4.5-9.6c1.6,3.1,3.3,6.2,4.9,9.3C1254.9,340.9,1254.7,341,1254.6,341.1z M1259.9,350.2
		c3.4,5.2,6.6,10.5,10.1,15.5c3.6,5.1,7.4,10,11.3,15.1C1275.5,378.1,1259.9,355.6,1259.9,350.2z M1273.6,400.3
		c-1.3,4.8-4.4,8.1-8.3,10.8c-0.1-0.1-0.3-0.2-0.4-0.3c0.8-1.5,1.6-2.9,2.6-4.7C1271,405.9,1271,401.8,1273.6,400.3z M1267.9,400.2
		c-0.9,5.4-4.8,8.6-7.3,12.9C1260.4,410.7,1263.4,405.4,1267.9,400.2z M1258.9,421.8c2.2,0.9,1.2,2.6,1.2,4
		C1258.4,425,1258.7,423.5,1258.9,421.8z M1256.2,425.9c0.2,0,0.4-0.1,0.6-0.1c0.2,1.1,0.4,2.1,0.6,3.3
		C1255.4,428.6,1255.2,427.7,1256.2,425.9z M1260.4,429.3c-0.6,0.2-1.3-0.4-2-0.6c0.1-0.3,0.2-0.5,0.3-0.8c0.7,0.3,1.4,0.5,2.3,0.9
		c0.1-0.7,0.2-1.3,0.4-1.9c0.1-0.6,0.3-1.1,0.5-1.8c0.8,0.4,1.4,0.8,2,1.1C1263.4,428.1,1261.9,428.8,1260.4,429.3z M1263,418.3
		c1.6,1.9,0.3,4.3,1.1,6.3C1261.9,423.2,1261.2,420.2,1263,418.3z M1265.9,420.2c-0.3-1.2-0.7-2.4-1.2-3.9c0.5-0.4,1.2-1,2.3-2
		c0.4,3.3,0.7,6.1,1,8.8C1265.9,422.7,1266.2,421.3,1265.9,420.2z M1281,419.5c-0.4,0-1-0.3-1-0.5c-0.4-1.5-0.6-3.1-0.9-4.7
		c0.3-0.1,0.6-0.2,0.9-0.3c0.6,1.6,1.2,3.1,1.7,4.7C1281.7,418.9,1281.4,419.5,1281,419.5z M1294.9,410c-0.2,0.1-0.3,0.1-0.5,0.2
		c0.8,2.4,1.7,4.9,2.6,7.4c-1.5,0-2.5,0-3.3,0c-0.4-1-0.8-1.8-1.1-2.6c-0.2,0.1-0.4,0.1-0.6,0.2c0.2,0.9,0.3,1.8,0.5,2.6
		c0.3,1.1,1,2.1,1.2,3.2c0.2,1,0.5,2.2-1.4,2.3c-0.9,0.1-1.6,1.2-2.5,1.9c-1.1-1.8-2.2-3.5-3.3-5.3c-0.1,0-0.2,0-0.3,0.1
		c0.4,1.3,0.8,2.6,1.3,3.9c0.3,0.7,0.7,1.4,1.1,2.1c1.9,3.9,1.3,6.5-2,9.2c-1.3,1.1-2.7,2.2-4.3,3.6c-0.2-3.6-0.5-6.9-0.7-10.3
		c0.9,0.2,1.6,0.4,2.8,0.7c-0.4-1.6-0.7-2.9-1-4.1c-0.4-1.2-0.8-2.4-1.2-3.7c0.2-0.1,0.5-0.2,0.7-0.3c0.9,2.3,1.8,4.5,2.8,6.8
		c0.2,0,0.3-0.1,0.5-0.1c-0.8-2.9-1.5-5.8-2.4-8.6c-1.4-4.1-3-8.2-4.8-12.2c-0.4-0.9-1.7-1.4-3-2.4c-0.7,5.6,3,10,2,15.2
		c-1.6-0.6-3.4,0.7-4.8-1.2c0.7-0.3,1.1-0.5,1.5-0.6c-0.4-2.9-0.9-5.7-1.3-8.6c-0.2-0.1-0.4-0.1-0.5-0.2c-0.3,0.7-0.9,1.3-0.9,2
		c0,1.6,0.3,3.2,0.3,4.8c0,1.4-0.2,2.8-0.4,4.2c-0.3,0-0.7,0.1-1,0.1c-0.9-2.5-1.8-4.9-2.9-7.9c2.7-3.7,5.8-7.9,9-12.3
		c2.1,3.6,3.1,7.9,6.6,10.8c-0.8-1.8-1.5-3.6-2.3-5.4c-0.7-1.5-1.3-3-2-4.4c-0.9-1.7-0.7-3.3,0.4-4.8c1.3-1.9,2.6-3.8,4-5.8
		c5,5.2,5.8,12.7,10.3,17.9c0.2-0.1,0.4-0.2,0.6-0.3c-2.5-5.4-5-10.8-7.5-16.4c0.6-0.7,1.1-0.1,1.8,0.5c1.2,0.9,2.5,1.7,4.3,2.9
		c4,9.4,10.3,18.8,12.5,29.9C1300,421.3,1297.4,415.7,1294.9,410z M1292.9,390.2c0.1-0.2,0.3-0.3,0.4-0.5c0.6,0.5,1.5,0.8,1.7,1.4
		c1.9,5.2,3.7,10.4,5.6,15.8C1296.9,401.7,1294.4,396.2,1292.9,390.2z M1306.4,408.9c0.6,1,1.3,1.9,1.9,2.9
		c-0.3,0.2-0.6,0.3-0.8,0.5c-0.5-1-1.1-2-1.6-3C1306,409.1,1306.2,409,1306.4,408.9z M1302.2,409.6c3.4,6.3,6.8,12.7,10.3,19
		c-0.2,0.2-0.4,0.5-0.6,0.7c-0.9-0.4-2-0.6-2.7-1.3c-0.8-0.8-1.3-1.8-1.7-2.9c-1.5-3.6-2.9-7.3-4.3-11c-0.6-1.4-1-2.9-1.5-4.3
		C1301.7,409.7,1301.9,409.6,1302.2,409.6z M1301.4,396.3c-0.2,0.1-0.5,0.3-0.7,0.4c-1-1.5-1.9-3-2.9-4.5c0.3-0.2,0.6-0.4,0.9-0.6
		C1299.5,393.2,1300.4,394.8,1301.4,396.3z M1307.2,376.9c-0.1-3,6.7-8.3,9.7-8.2c0.1,0.2,0.2,0.3,0.4,0.5
		C1313.9,371.7,1310.4,374.3,1307.2,376.9z M1378.3,385c-2.5-0.3-4.3-1.5-5.8-3.6c2.1-1,4.1-1,5.9,0.1c3.2,2.1,6.2,4.4,9.3,6.6
		c-0.1,0.2-0.2,0.4-0.3,0.7c-2.7-0.1-5.2-1-7.3-2.8C1379.6,385.5,1378.9,385.1,1378.3,385z M1388.9,395.7c-0.7,0.5-1.5,1.1-2.3,1.7
		C1386.3,395.4,1386.5,395.2,1388.9,395.7z M1383.3,392.6c0.7,2.3-1,5.4-5.1,8.5C1379.8,398.3,1381.5,395.5,1383.3,392.6z
		 M1376.3,400.3c0.2,0.1,0.4,0.2,0.6,0.3c-0.8,1.5-1.6,3-2.6,5C1373.6,402.8,1375.4,401.8,1376.3,400.3z M1372.7,406.2
		c0.2,0.1,0.5,0.3,0.7,0.4c-0.7,1-1.4,2.1-2,3.1c-0.2-0.1-0.3-0.2-0.5-0.3C1371.5,408.4,1372.1,407.3,1372.7,406.2z M1362.6,434.8
		c0.5-2.1,1.6-2.7,4.5-2.3C1366.1,434.4,1364.3,434,1362.6,434.8z M1421.9,435.6c0.7,1,1.4,2,2.2,2.9c0.8,0.9,1.8,1.7,2.7,2.5
		c-0.1,0.2-0.2,0.4-0.3,0.6c-1.1-0.3-2.2-0.5-3.2-0.9c-0.8-0.3-1.5-1.1-2.3-1.4c-1.6-0.6-1.8-1.9-1.4-3c0.2-0.6,1.4-1,2.2-1.4
		C1421.8,435.2,1421.9,435.4,1421.9,435.6z M1417.6,431c1,0.6,1.9,1.5,3,2.4c-2.1,1-3.8,0.8-4.6-0.4c-0.2-0.3-0.2-1.2,0-1.4
		C1416.3,431.2,1417.3,430.8,1417.6,431z M1408.1,420.5c0.5,0.2,0.7,1.3,1,2c0.4,0.9,0.7,1.9,1.3,2.7c0.3,0.4,1,0.5,2,0.8
		c-1.3-2.6-2.4-4.8-3.5-7c1.9-0.5,3.1-0.3,3.7,1.7c0.5,1.6,1.7,3,2.6,4.5c0.9,1.5,1.3,3.1,0.8,4.8c-2.5,0.7-1.9-2.4-4-2.9
		c0.5,1.3,0.8,2.2,1.2,3.2c-4.1,0-7.1-2.9-7.5-6.7c-1.6-1.1-2.9-1.9-4.2-2.8c-0.2,0.2-0.3,0.4-0.5,0.6c0.7,0.7,1.4,1.4,2,2.3
		c0.3,0.4,0.2,1.1,0.3,1.7c-0.5-0.2-1.2-0.2-1.4-0.6c-0.6-0.9-1.3-1.2-2-0.4c-0.6,0.7-1.4,1.7,0.1,2.4c0.1,0,0.1,0.3,0.3,0.7
		c-2.7-0.4-2.9,1.7-3.5,3.4c-1,2.9-2,5.9-2.9,8.9c-0.3,1.1-1,1.5-2.1,1.5c-2.6-0.1-4.5-1.4-5.5-3.7c-1.2-2.7-2-5.6-2.8-8.5
		c-0.4-1.5-1-1.7-2.3-1.2c-1,0.4-2.1,0.8-3.1,1.3c-0.1-0.2-0.2-0.3-0.2-0.5c0.7-0.4,1.4-0.8,2.2-1.2c0-0.3,0-0.7-0.1-1.4
		c-3.3,1.5-6.1,4.2-10.1,2.9c-0.1,1-0.1,1.7-0.2,2.4c-0.2,0.1-0.3,0.2-0.5,0.3c-0.5-0.9-1.1-1.7-1.6-2.6c0.7-0.4,1.4-0.8,2-1.1
		c0.9-1.4,1.7-2.8,2.7-4.1c1.2-1.7,2.6-3.2,1.3-5.3c3.5-3.1,6.9-6.2,10.2-9.2c0.6-0.6,1.3-1.2,1.7-1.9c1.2-2.3,3.3-2.9,5.7-2.8
		c0.2,0,0.3-0.1,0.5-0.1c0,0,0.1-0.1,0.2-0.2c-0.1-0.2-0.2-0.7-0.5-0.8c-1.8-0.8-1.2-1.6,0-2.3c1.9-1.1,3.9-2.2,6-3.4
		c1.1,2.5,2.1,4.9,3.1,7.3c-0.1,0.1-0.2,0.2-0.3,0.3c-0.5-0.6-1.1-1.1-1.5-1.7c-0.5-0.7-0.8-1.5-1.2-2.2c-0.6-1-1.2-2-2.7-0.9
		c1.2,2.4,2.4,4.9,3.6,7.4c1.2,2.4,2.4,4.8,3.6,7.2c0.1-0.1,0.3-0.1,0.4-0.2c-0.1-0.6-0.2-1.3-0.3-1.9c0.2-0.1,0.3-0.2,0.5-0.3
		c0.6,1,1.3,1.9,1.8,3C1405.3,417.7,1405.7,419.7,1408.1,420.5z M1403.9,404.8c-2.5-0.4-2.2-3-3.4-4.4
		C1403.3,400.6,1403,403.2,1403.9,404.8z M1447.6,315.5c1-2.5,1.9-5.1,2.9-7.6c0.2-0.6,0.2-1.3,0.5-1.9c0.2-0.4,0.7-0.6,1.1-1
		c0.2,0.1,0.3,0.3,0.5,0.4C1451.2,309,1451.2,313,1447.6,315.5z M1342.6,72.6c0.6-2,1.2-4,1.9-6s1.5-4,2.2-6
		c0.3-0.8,0.5-1.6,0.7-2.4c0.2-0.8,0.4-1.6,0.6-2.4c-1.6,1.7-2.4,3.7-3.1,5.8c-0.7,2.1-1.2,4.2-2.2,6.2l0,0l0,0l0,0l0,0
		c-0.1,0-0.2,0-0.3-0.1c-0.1,0-0.2-0.1-0.3-0.1c0.2-1,0.3-2,0.5-3c0.2-1,0.3-2,0.6-2.9c0.5-1.7,1-3.3,1.6-4.9
		c0.6-1.6,1.2-3.2,1.9-4.7c0.3-0.5,0.8-0.9,1.4-1.2s1.4-0.6,2-1c0.3-0.6,0.5-1.2,0.8-1.9s0.6-1.4,0.9-2.1c0.2-0.5,0.4-0.8,0.6-1
		c0.2-0.2,0.5-0.3,0.8-0.2c0.2,0,0.4,0.1,0.6,0.2s0.4,0.3,0.6,0.6c0.1-0.4,0.2-0.7,0.3-1c0.1-0.3,0.2-0.6,0.3-0.8
		c0.1-0.2,0.1-0.4,0.2-0.6c0.1-0.2,0.2-0.4,0.4-0.5c1-0.5,2-0.9,3.1-1.3c1.1-0.4,2.1-0.9,3.2-1.4l0,0l0,0l0,0l0,0
		c-0.2,0.7-0.7,1.3-0.9,1.9c-0.2,0.6-0.1,1.2,0.7,1.8c0.3-0.1,0.6-0.2,1-0.4c0.3-0.2,0.7-0.3,1-0.3c0.2-0.1,0.5,0,0.8,0.1
		c0.3,0.2,0.5,0.5,0.8,1c0.2-0.2,0.3-0.3,0.4-0.5c0.1-0.2,0.3-0.3,0.4-0.5l0,0l0,0l0,0l0,0c0.5,0.3,0.9,0.5,1.4,0.7
		c0.5,0.2,1,0.5,1.4,0.7l0,0l0,0l0,0l0,0l0,0l0,0c2.2,1.6,4.3,3.1,6.4,4.6c2.1,1.5,4.2,3,6.2,4.4c-1.4-1.5-2.8-3-4.3-4.6
		c-1.5-1.6-2.9-3.1-4.4-4.7c0.2-0.1,0.4-0.2,0.7-0.2c0.2-0.1,0.5-0.1,0.7-0.2c1.6-0.3,3.1-0.2,4.6,0.4c1.5,0.6,2.8,1.6,4,3.1
		c0.8,0.9,1.5,1.7,2.2,2.6s1.5,1.8,2.2,2.6c0.3,0.3,0.5,0.6,0.8,0.8s0.6,0.5,0.8,0.7c0.1-0.1,0.1-0.1,0.2-0.2s0.1-0.1,0.2-0.2
		c-1-1.3-1.9-2.6-2.9-3.9s-2-2.6-2.9-3.9c0.1-0.1,0.2-0.2,0.3-0.3c0.1-0.1,0.2-0.2,0.3-0.3l0,0l0,0l0,0l0,0c1.5,0.4,2.9,0.9,4.3,1.6
		c1.3,0.7,2.6,1.6,3.7,2.6c3.1,2.7,5.4,5.7,6.8,9.1c1.4,3.4,2.1,7.1,1.9,11.2c0,0.6-0.1,1.2,0.1,1.7s0.5,0.9,1.2,1.2
		c0.2,0.1,0.3,0.3,0.3,0.6c0.1,0.3,0.1,0.6,0.1,0.9c0,0.8,0,1.6,0,2.4c0,0.8,0,1.6,0,2.5c0.1,0,0.2,0,0.3,0c0.1,0,0.2,0,0.3,0
		c0.3-0.4,0.5-0.7,0.8-1.1c0.3-0.4,0.5-0.7,0.8-1.1c-0.2-0.1-0.3-0.2-0.5-0.3c-0.2-0.1-0.4-0.2-0.6-0.3c0.3-0.6,0.6-1.1,0.9-1.7
		c0.3-0.6,0.6-1.1,0.9-1.7l0,0l0,0l0,0l0,0c0.7,1.6,0.9,3.2,1,4.7c0.1,1.6,0,3.2,0.1,4.7c-0.8,0.4-1.5,0.8-2.1,1.2
		c-0.7,0.4-1.4,0.8-2.1,1.1c0,0.1,0.1,0.2,0.1,0.3c0,0.1,0.1,0.2,0.1,0.4c0.4,0.1,0.7,0.1,1.1,0.1s0.8,0.1,1.3,0.1
		c0,0.4,0.1,0.7,0.1,1.1c0,0.4,0.1,0.8,0.1,1.2c0,5.2-0.5,10.2-1.3,15.2s-1.9,10-3.2,14.9c-0.2,0.8-0.4,1.5-0.7,2.2
		c-0.3,0.7-0.8,1.4-1.5,1.9c-0.5,0.4-0.7,1-0.8,1.7s-0.2,1.5-0.4,2.1c-0.1,0.4-0.2,0.8-0.3,1.2c-0.1,0.4-0.3,0.8-0.5,1.1
		c-0.6,1.3-1.2,2.6-1.8,3.8s-1.2,2.5-1.7,3.8c-0.7,1.7-1.5,3.3-2.5,4.7s-2.4,2.5-4.3,3.2c-0.3,0.1-0.5,0.4-0.6,0.8
		c-0.2,0.4-0.3,0.8-0.3,1.2c-0.1,0.3,0,0.6,0.2,0.9s0.4,0.5,0.6,0.5c0.1,0,0.1,0,0.2,0s0.2,0,0.2,0c0.2-0.1,0.4-0.2,0.6-0.3
		c0.2-0.1,0.4-0.3,0.6-0.4c0.2-0.2,0.4-0.4,0.6-0.5c0.2-0.1,0.4-0.2,0.6-0.2c0.3-0.1,0.6,0,0.9,0.2s0.5,0.5,0.7,0.8
		c0.3,0.5,0.6,1.1,0.8,1.6c0.2,0.6,0.4,1.1,0.5,1.7c0.1,0.6,0.1,1.2,0.1,1.9s0.1,1.3,0.3,1.9c0.1-0.3,0.1-0.5,0.2-0.7
		c0-0.2,0.1-0.5,0.2-0.7c0.1,0,0.1,0,0.2,0s0.2,0,0.2-0.1l0,0l0,0l0,0l0,0c0.2,1.1,0.3,2.1,0.5,3.2c0.2,1.1,0.4,2.1,0.5,3.2
		c0.3,1.3,0.5,2.6,0.7,3.9c0.2,1.3,0.5,2.6,0.8,3.8c0.1,0.6,0.3,1.1,0.5,1.4c0.3,0.4,0.6,0.6,1.1,0.6c0.2,0,0.3,0,0.5-0.1
		c0.2-0.1,0.3-0.2,0.5-0.3l0,0l0,0l0,0l0,0c1,1.7,2,3.3,3,4.9c1,1.6,2,3.2,2.9,4.8c0.7,1.2,1.2,2.3,1.6,3.6c0.4,1.3,0.6,2.7,0.6,4.3
		l0,0l0,0l0,0l0,0c-0.4-0.5-0.8-0.9-1.1-1.3s-0.7-0.7-1-1.1c0.1,1.4,0.2,2.7,0.2,3.9c0.1,1.3,0.1,2.5,0.2,3.8c0,0,0.1,0,0.2,0
		c0.1,0,0.2,0,0.2,0.1c0.1-0.4,0.1-0.7,0.2-1c0.1-0.3,0.2-0.7,0.2-1c0.1,0,0.2,0,0.3-0.1c0.1,0,0.2-0.1,0.3-0.1l0,0l0,0l0,0l0,0
		c1,1.5,1.8,3,2.4,4.6s0.8,3.3,0.6,5.2c0-0.1,0.1-0.2,0.2-0.3c0.1-0.1,0.1-0.2,0.2-0.3c0.1-0.1,0.1-0.2,0.1-0.2c0,0,0,0,0,0l0,0l0,0
		c0,0,0,0,0,0c0,0,0,0,0,0c0.5,0.3,0.9,0.6,1.4,0.9s0.9,0.6,1.4,0.9c0.2,0.7,0.3,1.3,0.5,2s0.3,1.3,0.5,2c0.1,0,0.2,0,0.3,0.1
		c0.1,0,0.2,0.1,0.3,0.1c-0.3,0.2-0.6,0.3-0.9,0.5c-0.3,0.2-0.6,0.4-0.9,0.5c0,0.1,0,0.1,0,0.2c0,0.1,0,0.1,0,0.2
		c0.3,0,0.5,0,0.8-0.1c0.3,0,0.6-0.1,1-0.1c0,0.5,0.1,1,0.1,1.6c0,0.6,0.1,1.1,0.1,1.7c0.2-0.1,0.4-0.2,0.6-0.3s0.6-0.3,0.9-0.5l0,0
		l0,0l0,0l0,0c0.2,0.7,0.4,1.3,0.6,1.9s0.4,1.3,0.6,1.9c0.1,0.4,0.2,0.7,0.2,1.1c0.1,0.4,0.2,0.7,0.4,1c0.5,0.9,0.6,1.6,0.4,2.1
		c-0.3,0.6-0.9,1.1-1.8,1.5c0.5,1.4,1,2.7,1.8,3.8c0.8,1.1,2,1.8,3.9,2c-0.5,0.7-0.9,1.3-1.3,1.8c-0.4,0.5-0.7,1-1,1.4
		c0,0.9,0,1.8,0,2.6c0,0.9,0,1.7,0,2.6c0.1,0,0.2,0,0.3,0c0.1,0,0.2,0,0.3,0.1c0.1-0.4,0.1-0.8,0.1-1.2c0.1-0.4,0.1-0.8,0.3-1.2
		c0.1-0.3,0.3-0.5,0.5-0.7s0.5-0.4,0.7-0.6l0,0l0,0l0,0l0,0c0.2,0.2,0.3,0.4,0.4,0.7s0.3,0.5,0.4,0.7c0.4,0.9,0.7,1.8,1.1,2.7
		c0.4,0.9,0.7,1.8,1.2,2.7c0.4,0.6,0.9,1.1,1.4,1.7c0.5,0.5,1,1.1,1.4,1.7c0.5,0.8,0.9,1.6,1.3,2.4c0.4,0.8,0.7,1.7,1,2.5
		c0.2,0.6,0.2,1.3,0.3,1.9c0.1,0.6,0.4,1.2,1.1,1.7c0.2,0.2,0.3,0.5,0.4,0.9c0.1,0.4,0.1,0.8,0.1,1.2c0.1,0.6,0.1,1.2,0,1.9
		c0,0.6,0,1.3,0,1.9c0.1,0,0.2,0,0.3,0.1c0.1,0,0.2,0.1,0.3,0.1c0.2-0.5,0.3-1,0.5-1.5c0.2-0.5,0.4-1,0.6-1.5l0,0l0,0l0,0l0,0
		c1.5,0.8,2.3,2.1,3.1,3.5s1.5,2.9,2.8,4c-0.1-1.9-0.7-3.4-1.5-4.6s-1.8-2.2-2.5-3.2c-0.1-1-0.1-1.7-0.1-2.5s-0.1-1.4-0.1-2.2
		c-0.1,0-0.2,0-0.4,0.1c-0.1,0-0.3,0.1-0.4,0.1c-0.7,0.1-1.2-0.1-1.6-0.5c-0.4-0.4-0.7-0.9-0.9-1.6c-0.3-0.7-0.6-1.4-1-2.1
		c-0.4-0.7-0.8-1.4-1.1-2.1c-0.5-1.1-0.9-2.2-1.3-3.4c-0.4-1.2-0.9-2.4-1.3-3.6c-0.2,0.1-0.4,0.3-0.6,0.5c-0.2,0.2-0.5,0.4-0.7,0.6
		l0,0l0,0l0,0l0,0c0-0.9,0-1.8,0-2.8c0-1,0-2,0-3.2c-0.5,0.3-0.8,0.5-1.2,0.8c-0.4,0.2-0.8,0.5-1.2,0.8l0,0l0,0l0,0l0,0
		c0.2-1.2,0.3-2.3,0.5-3.4c0.2-1.1,0.3-2.1,0.5-3.1c0.1-1-0.2-1.9-0.6-2.7c-0.4-0.8-1-1.6-1.5-2.3c-0.5-0.7-1-1.4-1.4-2.2
		c-0.4-0.8-0.6-1.7-0.5-2.9l0,0l0,0l0,0l0,0c2.4,2.9,4.5,5.7,6,8.8c1.5,3.1,2.4,6.5,2.4,10.3c0.4-0.3,0.6-0.5,0.9-0.7
		c0.2-0.2,0.4-0.4,0.6-0.6l0,0l0,0l0,0l0,0c2.7,4.8,5.4,9.6,8.1,14.4c2.7,4.8,5.4,9.6,8.1,14.3h0h0.1c-0.4-0.9-0.7-1.7-1.1-2.5
		s-0.7-1.7-1.1-2.6l0,0l0,0l0,0l0,0c1.7,0.5,3.1,2.3,4.1,4.8c1,2.4,1.5,5.4,1.5,8.1l0,0l0,0l0,0l0,0c-0.4-0.6-0.8-1.1-1.1-1.6
		s-0.7-1-1-1.5c-0.1,0.1-0.2,0.1-0.3,0.1c-0.1,0-0.2,0.1-0.3,0.1c0,0.4,0,0.8,0,1.2s-0.1,0.8-0.1,1.1c1.4,0.4,2.5,1.6,3,3
		c0.5,1.4,0.5,3-0.4,4.2c0.4,0.1,0.7,0.2,1,0.3c0.4,0.1,0.7,0.2,1.2,0.3c-0.2,0.8-0.4,1.5-0.6,2.2c-0.2,0.7-0.4,1.5-0.6,2.2
		c0.2-0.2,0.3-0.3,0.4-0.5c0.1-0.2,0.3-0.3,0.5-0.5l0,0l0,0l0,0l0,0c1.7,3.8,2.9,7.7,3.6,11.8s1,8.2,1,12.4l0,0l0,0l0,0l0,0
		c-0.1-0.3-0.2-0.6-0.3-1c-0.1-0.4-0.2-0.8-0.4-1.4c-0.5,0.6-0.9,1-1.2,1.4s-0.7,0.8-0.9,1.2c-0.4,0.9-0.7,1.8-1.1,2.7
		c-0.3,0.9-0.7,1.8-1.1,2.7c-0.5,1.1-1.1,2.2-1.6,3.2c-0.6,1.1-1.1,2.1-1.6,3.2c-0.4,0.8-0.6,1.5-0.9,2.3c-0.3,0.8-0.6,1.6-1,2.3
		c-0.2,0.3-0.4,0.6-0.6,0.8c-0.2,0.3-0.4,0.6-0.3,0.8c0.4,1.5,0.2,2.7-0.2,3.9c-0.4,1.2-1.1,2.3-1.6,3.5c-1.5,3.1-2.9,6.1-4.4,9.2
		c-1.5,3.1-2.9,6.1-4.4,9.2c-0.1,0.3-0.2,0.5-0.4,0.8s-0.3,0.5-0.5,0.8l0,0l0,0l0,0l0,0c-0.1-0.1-0.1-0.1-0.2-0.1
		c-0.1,0-0.2-0.1-0.2-0.1c0-0.4,0.1-0.8,0.2-1.3s0.2-1,0.3-1.6c-2.1,1.9-3.3,4.2-4.3,6.4s-1.8,4.6-3.2,6.7l0,0l0,0l0,0l0,0
		c0.3-2.5,1-4.7,2-6.8c1-2.2,2.3-4.2,3.5-6.4c-0.4,0.3-0.8,0.5-1.1,0.7c-0.4,0.3-0.7,0.5-1,0.9c-0.5,0.7-0.9,1.4-1.2,2.2
		c-0.4,0.7-0.8,1.5-1.2,2.2s-0.8,1.5-1.2,2.2c-0.4,0.7-0.8,1.5-1.1,2.2c-0.3,0.6-0.5,1.3-0.7,1.9c-0.2,0.7-0.4,1.3-0.6,2
		c-0.8,2.6-2,5-3.3,7.4s-2.8,4.6-4.3,6.8c-1,1.4-1.8,2.8-2.7,4.3c-0.9,1.4-1.8,2.9-2.7,4.3c-0.6,0.9-1.2,1.7-1.8,2.5
		c-0.6,0.8-1.3,1.6-2,2.4c-0.3,0.3-0.7,0.5-1.2,0.6c-0.5,0.2-1.1,0.3-1.8,0.6l0,0l0,0l0,0l0,0c0.9-1.9,2.2-3.3,3.3-4.7s1.9-3,1.8-5
		c-1.2,1.6-2.5,2.9-4,3.8c-1.5,0.9-3.1,1.5-4.9,1.8c-0.8,0.1-1.6,0.2-2.5,0.1s-1.8-0.1-2.7-0.3c0.7,0.6,1.1,0.9,1.7,1.1
		c0.6,0.2,1.2,0.2,2.1,0.1c0.6-0.1,1.2-0.2,2.1-0.4c0.9-0.2,1.9-0.4,3.1-0.7l0,0l0,0l0,0l0,0c0,0.8-0.3,1.5-0.8,2.1
		c-0.5,0.6-1.1,1.1-1.8,1.2c-0.1,0-0.2,0-0.3,0.1c-0.1,0-0.2,0.1-0.3,0.1c-1.7-0.1-3.3-0.3-4.8-0.8c-1.5-0.5-3-1.2-4.3-2.2
		c-2.6-1.8-5.1-3.6-7.5-5.4c-2.5-1.8-4.9-3.7-7.4-5.6c-1-0.8-2-1.7-2.9-2.6c-0.9-0.9-1.8-1.8-2.7-2.6c0,0.1-0.1,0.1-0.2,0.2
		c-0.1,0.1-0.2,0.2-0.2,0.2c1.5,1.4,2.9,2.8,4.3,4.1c1.4,1.4,2.9,2.8,4.4,4.1c1.5,1.3,3,2.6,4.6,3.8s3.2,2.4,4.9,3.5
		c1.7,1.1,3.5,1.9,5.4,2.8s3.7,1.6,5.5,2.5c-0.5,1.2-1.1,2.1-1.8,2.7c-0.7,0.6-1.5,1-2.4,1c-0.7,0.1-1.4-0.1-2.1-0.4
		s-1.5-0.8-2.3-1.4c-0.9-0.7-1.7-1.5-2.4-2.2c-0.8-0.8-1.6-1.6-2.4-2.5c-1.5-1.6-3-2.7-4.8-3.5c-1.8-0.7-3.7-1-5.8-0.8
		c-0.5,0.1-0.9,0.1-1.4,0s-0.9,0-1.4,0c-1.7-0.2-2.7-0.4-3.4-1c-0.7-0.6-1.1-1.5-1.5-2.8c-1.2-0.5-2.3-0.8-3.3-1.2s-2.1-0.7-3-1.2
		c-3.1-1.5-6.1-3-9.2-4.3c-3.1-1.3-6.3-2.4-9.6-3.1c-3.4-0.7-6.7-1.1-10-1.3c-3.3-0.2-6.7-0.1-10,0.2c-1.4,0.1-2.8,0.3-4.2,0.4
		c-1.4,0.2-2.8,0.4-4.1,0.7c-1.5,0.3-3,0.7-4.4,1.4c-1.4,0.7-2.8,1.6-4.1,2.9c0.5,0.1,0.9,0.1,1.3,0.1c0.4,0,0.7,0.1,1,0.1
		c0,0.1,0.1,0.2,0.2,0.3c0.1,0.1,0.1,0.2,0.2,0.3c-2.3,1.2-4.6,2.4-6.9,3.6s-4.6,2.4-7,3.7l0,0l0,0l0,0l0,0c0-0.5,0.1-0.8,0.1-1.1
		c0-0.3,0.1-0.6,0.1-0.9c-0.1,0-0.2,0-0.3-0.1s-0.2-0.1-0.3-0.1c-0.1,0.4-0.1,0.7-0.2,1c0,0.3-0.1,0.7,0,1c0.1,0.5,0.1,0.8-0.1,1.1
		c-0.1,0.3-0.4,0.6-1,0.8c-0.4,0.2-1,0.3-1.3,0.6c-0.4,0.3-0.6,0.8-0.3,1.5c0.2,0.6,0.5,1.1,0.9,1.4c0.4,0.3,0.9,0.4,1.5,0.3
		c0.1,0,0.2,0,0.3-0.1c0.1,0,0.2-0.1,0.2-0.1c1.1-0.5,2.1-0.9,3.1-1.4s2.1-0.9,3.1-1.4c0.7-0.4,1.4-0.8,2.1-1.2s1.4-0.8,2.2-1.2l0,0
		l0,0l0,0l0,0c-1.6,2.2-3.7,3.8-5.8,5.3c-2.1,1.5-4.3,3.1-6,5.2l0,0l0,0l0,0l0,0c-0.3-0.3-0.5-0.6-0.7-0.8c-0.2-0.3-0.4-0.5-0.7-0.8
		c-0.7,0.8-0.8,1.5-0.6,2.2c0.2,0.7,0.6,1.3,0.8,1.9l0,0l0,0l0,0l0,0c-1.8-0.6-3.8-2.2-5.4-4.1c-1.6-1.9-2.9-4.2-3-5.9l0,0l0,0l0,0
		l0,0c0.6,0.5,1.2,0.9,1.7,1.3c0.5,0.4,1,0.8,1.5,1.2c0-0.1,0.1-0.1,0.2-0.2c0.1-0.1,0.1-0.2,0.2-0.2c-1.1-1.3-2.2-2.6-3.3-3.9
		c-1.1-1.3-2.2-2.6-3.3-3.9c-5.3-6.5-10.1-13.3-14.4-20.3s-8.4-14.3-12.2-21.7c-0.7-1.3-1.3-2.6-2-3.9c-0.7-1.3-1.3-2.6-2-3.9
		c-0.1-0.3-0.3-0.6-0.4-0.8c-0.1-0.3-0.2-0.5-0.1-0.7c1.3-1.6,1.6-3.2,1.4-4.8c-0.1-1.6-0.7-3.2-0.9-4.8c-0.1-0.3-0.1-0.6-0.1-0.9
		c0-0.3-0.1-0.6-0.1-0.9c0.1-0.1,0.2-0.1,0.3-0.2c0.1-0.1,0.2-0.1,0.3-0.2l0,0l0,0l0,0l0,0c0.3,0.5,0.6,1,0.9,1.5
		c0.3,0.5,0.7,1.1,1.1,1.7c-0.1-1.9-0.7-3.4-1.4-4.8c-0.7-1.4-1.5-2.8-2-4.4c0,0.4-0.1,0.6-0.2,0.9c-0.1,0.3-0.1,0.5-0.2,0.8l0,0
		l0,0l0,0l0,0c-0.3-0.3-0.5-0.6-0.6-0.8c-0.2-0.2-0.3-0.5-0.5-0.7c-0.7,0.3-1,0.6-1.1,1.1c-0.1,0.4,0.1,0.9,0.3,1.4
		c0.3,0.5,0.6,0.9,0.8,1.3c0.3,0.4,0.6,0.9,0.8,1.3c0.2,0.4,0.3,0.8,0.3,1.2c0.1,0.4,0.2,0.8,0.3,1.3l0,0l0,0l0,0l0,0
		c-1,0.1-1.5-0.2-1.9-0.5c-0.4-0.4-0.5-0.9-0.5-1.6c-0.1-0.4-0.2-0.7-0.3-1c-0.2-0.3-0.3-0.7-0.5-1c-0.2,0.1-0.3,0.1-0.4,0.2
		c-0.1,0.1-0.3,0.1-0.4,0.2c0.3,0.8,0.6,1.6,0.9,2.4s0.6,1.6,0.9,2.4c-0.1,0.1-0.1,0.1-0.2,0.2s-0.2,0.1-0.2,0.2l0,0l0,0l0,0l0,0
		c-0.2-0.2-0.4-0.3-0.5-0.4c-0.2-0.1-0.4-0.3-0.5-0.5c-0.3-0.6-0.5-1.1-0.8-1.7c-0.3-0.6-0.5-1.1-0.6-1.7c-0.1-0.3,0-0.6,0.2-0.9
		c0.1-0.3,0.3-0.6,0.5-0.9c0.4-0.6,0.7-1.1,0.8-1.7c0.1-0.6,0.1-1.2-0.4-2c-0.3,0.3-0.5,0.6-0.8,0.9c-0.3,0.3-0.6,0.7-0.9,1.1l0,0
		l0,0l0,0l0,0c-0.3-0.6-0.5-1.2-0.7-1.7s-0.5-1.1-0.7-1.6c-1.3-1-2-2.3-2.5-3.6c-0.5-1.4-0.7-2.8-0.9-4.3c-0.1-0.7-0.1-1.3-0.1-2
		c0-0.7,0.1-1.3,0.1-2c0-0.4,0-0.9-0.1-1.3c0-0.4-0.2-0.8-0.4-0.9c-0.8-0.6-0.9-1.1-0.9-1.7c0.1-0.6,0.3-1.1,0.5-1.7
		c0.1-0.4,0.1-0.7,0.1-1.1c0-0.4-0.1-0.7-0.1-1.1c-0.1,0-0.2,0-0.3,0s-0.2,0-0.4,0c0,0.6-0.1,1.1-0.2,1.7s-0.1,1.1-0.2,1.7l0,0l0,0
		l0,0l0,0c-0.1,0-0.1,0-0.2,0c0,0-0.1,0-0.2,0c-0.1-0.6-0.2-1.2-0.3-1.9c-0.1-0.6-0.2-1.3-0.3-1.9c1.3-0.8,2-1.5,2.3-2.3
		c0.3-0.8,0.1-1.9-0.3-3.4c-0.1-0.4-0.2-0.8-0.3-1.2c-0.1-0.4-0.2-0.9-0.3-1.4c-0.5-0.1-1-0.1-1.6-0.2c-0.6-0.1-1.2-0.2-1.9-0.2
		c-0.8-1.7-1.3-3.5-1.4-5.4c-0.2-1.9,0-3.8,0.4-5.7c0.5-2.1,1-4.1,1.6-6.2c0.6-2.1,1.2-4.1,1.8-6.2c0.6-2.2,1.1-4.3,1.6-6.4
		c0.5-2.1,1.1-4.1,1.6-6.1c0.4-0.3,0.8-0.6,1.2-0.9s0.8-0.6,1.1-0.9c0.4-0.5,0.7-1,1-1.5c0.3-0.5,0.6-1,0.9-1.5
		c0.1-0.2,0.2-0.3,0.2-0.5c0-0.2,0-0.3,0-0.5c0-0.9-0.1-1.7-0.2-2.6c-0.1-0.9-0.2-1.7-0.3-2.6c0.1-0.1,0.2-0.1,0.3-0.1
		c0.1,0,0.2-0.1,0.3-0.1l0,0l0,0l0,0l0,0c0.2,0.5,0.5,0.9,0.7,1.3s0.4,0.9,0.4,1.3c0.1,1.4,0.2,2.7,0.2,4.1c0,1.4,0,2.8-0.1,4.1
		c-0.1,1-0.2,1.9-0.4,2.9c-0.2,1-0.3,1.9-0.4,2.9c0,0.4,0,0.7,0,1.1c0,0.4,0,0.9,0,1.4c0.7-0.3,1.1-0.7,1.4-1.2
		c0.2-0.5,0.3-1,0.3-1.6c0-2.1-0.1-4.1-0.1-6.1s0.1-4.1,0.3-6.1c0.2-1.8,0.4-3.6,0.8-5.4c0.4-1.8,0.9-3.6,1.4-5.3
		c0.3-1,0.9-1.8,1.6-2.7s1.5-1.6,2.2-2.4c0.2-0.2,0.4-0.4,0.6-0.5c0.3-0.1,0.5-0.3,0.8-0.4l0,0l0,0l0,0l0,0c0.1,0.1,0.1,0.1,0.2,0.2
		c0,0.1,0.1,0.1,0.2,0.2c-0.2,0.2-0.3,0.4-0.4,0.7c-0.1,0.2-0.3,0.5-0.5,0.7c0.9-0.5,1.5-1.3,1.8-2.5c0.3-1.2,0.2-2.7-0.4-4.4
		c-0.1,0.4-0.2,0.7-0.3,1c-0.1,0.3-0.2,0.7-0.3,1l0,0l0,0l0,0l0,0c-0.3-0.3-0.5-0.5-0.8-0.8c-0.3-0.3-0.6-0.7-1-1.1
		c1.6-3,3.2-5.9,4.8-8.9c1.6-3,3.2-6,4.9-9c0.8-1.5,1.7-3,2.5-4.5c0.9-1.5,1.7-3,2.6-4.5c0.1-0.2,0.2-0.3,0.4-0.3
		c0.2-0.1,0.3-0.1,0.5-0.2c0.1,0,0.1,0,0.2,0s0.2,0,0.3,0c0.3-0.8,0.5-1.5,0.7-2.2s0.5-1.5,0.8-2.2c0.3-0.7,0.7-1.2,1.1-1.8
		c0.4-0.6,0.9-1.1,1.4-1.7l0,0l0,0l0,0l0,0c0.1,0.1,0.2,0.1,0.3,0.2c0.1,0.1,0.2,0.1,0.4,0.2c-0.1,0.4-0.1,0.8-0.1,1.2
		c0,0.4-0.1,0.8-0.1,1.2c0.1,0,0.2,0,0.3,0.1s0.2,0.1,0.2,0.1c0.2-1,0.3-2,0.5-3c0.2-1,0.3-2,0.5-3l0,0l0,0l0,0l0,0
		c0.2,0,0.3,0,0.5,0.1c0.2,0,0.3,0.1,0.5,0.1c0.5,3.2,0.4,6.2-0.1,9.3s-1.3,6.2-2.1,9.4l0,0l0,0l0,0l0,0c-0.2-0.3-0.4-0.5-0.5-0.8
		c-0.2-0.2-0.3-0.5-0.5-0.8c-0.1,0.8-0.1,1.4-0.2,2c0,0.6-0.1,1.2-0.2,1.8c0.2,0,0.4,0,0.5,0c0.2,0,0.3,0,0.5,0
		c0.4-0.1,0.7-0.2,0.9-0.5c0.2-0.3,0.3-0.7,0.3-1.2c0-0.5,0.2-0.9,0.6-1.3c0.3-0.4,0.7-0.8,0.9-1.3c0.2-0.4,0.5-0.8,0.7-1.2
		c0.2-0.4,0.3-0.8,0.2-1.1c-0.6-2-0.7-4-0.6-5.9s0.5-3.9,0.9-5.8c0.2-1,0.5-2,0.7-3s0.5-2,0.8-3c0.1,0,0.1,0,0.2-0.1
		c0.1,0,0.1-0.1,0.2-0.1c0.2,0,0.3,0,0.5,0c0.2,0,0.3,0,0.5,0c0.3,0,0.5-0.1,0.7-0.3c0.2-0.2,0.2-0.6,0.1-1.1
		c-0.2,0.2-0.3,0.3-0.5,0.5c-0.2,0.2-0.3,0.3-0.5,0.5l0,0l0,0l0,0l0,0c-0.5-0.9-0.6-1.5-0.2-1.9c0.3-0.4,1.1-0.7,2.3-0.8
		c0.2-1.7,0.4-3.4,0.7-5.2c0.2-1.7,0.5-3.5,0.7-5.2c0.2-1.7,0.4-3.3,0.7-5s0.5-3.3,0.7-5c0-0.2,0.1-0.4,0.1-0.6s0-0.4-0.1-0.4
		c-1.1-0.9-1.2-2-1.2-3.1c0-1.1,0-2.3-0.6-3.3c-0.6-1-1.1-2.1-1.5-3.2s-0.8-2.2-1.2-3.2c-0.1-0.2-0.1-0.3-0.1-0.5c0-0.2,0-0.5,0-0.8
		l0,0l0,0l0,0l0,0c0.3,0.1,0.5,0.1,0.7,0.2c0.2,0.1,0.5,0.1,0.8,0.2c-3-5.6-4-11.5-4.5-17.5c-0.5-6-0.6-12.1-1.9-18
		c-0.3-0.2-0.6-0.4-0.9-0.6c-0.3-0.2-0.6-0.4-0.9-0.6c0.4-0.4,0.6-0.6,0.9-0.9c0.2-0.2,0.4-0.4,0.6-0.6l0,0l0,0l0,0l0,0
		c0,0.2,0,0.5,0.1,0.7c0,0.3,0.1,0.6,0.1,0.9c0.1,0,0.2,0,0.3,0c0.1,0,0.2,0,0.3,0c0.1-0.7,0.2-1.4,0.2-2.2c0.1-0.7,0.1-1.5,0.3-2.2
		c0.2-0.9,0.5-1.7,0.7-2.6c0.3-0.9,0.5-1.7,0.7-2.6c0-0.1,0.1-0.2,0.2-0.3c0-0.1,0.1-0.2,0-0.3c-0.5-1.2-0.4-2.4-0.1-3.5
		c0.3-1.1,0.7-2.3,0.8-3.4c0.1-0.5,0.1-1,0.1-1.6s-0.1-1.1-0.2-1.6c-1.7,2.7-2.1,5.5-2.4,8.4c-0.3,2.9-0.3,5.9-1.1,8.7
		c-0.1,0.1-0.2,0.1-0.3,0.1c-0.1,0-0.2,0.1-0.2,0.1l0,0l0,0l0,0l0,0c-0.1-0.4-0.2-0.7-0.4-1.1c-0.1-0.4-0.3-0.7-0.4-1.1
		c-0.1-0.5-0.2-0.9-0.2-1.3s-0.1-0.9-0.1-1.3c-0.1,0-0.2,0-0.3,0c-0.1,0-0.2,0-0.3,0c0,0.3-0.1,0.6-0.1,0.9c0,0.3-0.1,0.6-0.1,0.8
		c0,1.7-0.1,3.3,0.1,5s0.5,3.3,1.4,4.8c0,0.1,0.1,0.2,0.1,0.4c0,0.1,0,0.3,0,0.4c-0.5,3.4-0.3,6.7,0.2,9.9c0.5,3.3,1.2,6.6,1.6,9.9
		c0.1,0.6,0.2,1.1,0.2,1.7c0.1,0.6,0.1,1.1,0.2,1.7c-0.1,0-0.2,0-0.3,0.1c-0.1,0-0.2,0.1-0.3,0.1l0,0l0,0l0,0l0,0
		c-0.3-1.1-0.6-2.2-1-3.3c-0.3-1.1-0.7-2.2-1-3.3c-0.7-2.6-1.4-5.1-2.1-7.6c-0.7-2.5-1.3-5.1-1.8-7.7c-0.2-0.6-0.1-1.2,0-1.9
		c0.1-0.6,0.3-1.3,0.4-1.9c0-0.2,0.1-0.4,0.2-0.6c0.1-0.2,0.2-0.3,0.1-0.4c-0.6-1.2-0.7-2.3-0.7-3.5c0-1.2,0.2-2.3,0.4-3.5
		c0.2-1.1,0.4-2.2,0.5-3.3s0.3-2.1,0.4-3c0.5-0.2,1-0.2,1.5-0.3s0.9-0.2,1.2-0.5c0.2-0.2,0.3-0.5,0.3-0.9s0-0.8,0-1.2
		c-0.4,0-0.7,0-1.1-0.1s-0.8-0.1-1.2-0.1c0-0.2,0-0.4,0-0.7c0-0.3,0-0.5,0-0.8l0,0l0,0l0,0l0,0c0.4,0.1,0.8,0.1,1.2,0.2
		c0.4,0.1,0.8,0.1,1.2,0.2c-0.4-2.1-0.2-4.1,0.2-6.1c0.4-2,1-3.9,1.5-5.8c0.1-0.4,0.1-0.7,0.1-1.1c0-0.4,0-0.7,0.1-1.1
		c-0.3,0.1-0.6,0.1-1,0.2c-0.3,0.1-0.7,0.1-1,0.2l0,0l0,0l0,0l0,0c-0.6-2.3-0.2-4.9,0.9-7c1.1-2.2,2.9-3.9,5.1-4.6
		c-0.6-0.8-0.7-1.4-0.5-2c0.2-0.6,0.6-1.2,1.1-1.8c0.7-0.8,1.3-1.5,1.9-2.3c0.6-0.8,1.3-1.6,2-2.5l0,0l0,0l0,0l0,0
		c0.2,0.1,0.4,0.1,0.6,0.2c0.3,0.1,0.6,0.1,1,0.2c-0.2-0.4-0.3-0.7-0.4-1c-0.1-0.3-0.3-0.7-0.4-1c0.4-0.2,0.7-0.3,1.1-0.5
		s0.7-0.3,1-0.5c0.4-0.2,0.7-0.5,1-0.7c0.3-0.3,0.6-0.6,1-0.9c0.2-0.2,0.3-0.3,0.5-0.4c0.2-0.1,0.3-0.3,0.5-0.4
		c0.4-0.2,0.7-0.3,1.1-0.5c0.4-0.2,0.9-0.4,1.5-0.6l0,0l0,0l0,0l0,0c-0.9,1.3-1.8,2.4-2.6,3.5c-0.8,1.1-1.6,2.2-2.3,3.2
		c0.1,0.1,0.1,0.1,0.2,0.2c0.1,0.1,0.1,0.1,0.2,0.2c0.4-0.5,0.8-0.9,1.2-1.3c0.4-0.4,0.8-0.9,1.2-1.4c0.8-1,1.6-1.9,2.3-2.9
		s1.5-1.9,2.3-2.8c1-1.1,2-1.9,3.1-2.5c1.1-0.6,2.3-1.1,3.6-1.3c0.4-0.1,0.8-0.1,1.2-0.1c0.4,0,0.8,0,1.2,0c0.2,0.4,0.4,0.8,0.6,1.2
		c0.2,0.4,0.4,0.9,0.6,1.4c-2.4,1-5.1,1.5-7.5,2.6c-2.4,1.1-4.6,2.6-6,5.6c2.7-2,5.4-3.7,8.3-5.1c2.9-1.4,6-2.3,9.4-2.5
		c0.2,0,0.4,0,0.7-0.1c0.2,0,0.5-0.1,0.7-0.1c0-0.1,0-0.2-0.1-0.3c0-0.1-0.1-0.2-0.1-0.3c-0.4,0-0.7,0-1,0c-0.3,0-0.7,0-1,0
		c-0.1,0-0.2,0-0.3,0s-0.2,0-0.3,0c-1.1,0.1-1.7,0-2.1-0.5s-0.5-1.4-0.6-2.9l0,0l0,0l0,0l0,0c1.3,0.2,2.5,0.3,3.7,0.4
		c1.2,0.2,2.5,0.4,3.7,0.7c2.7,0.7,5.2,1.7,7.4,3.1c2.3,1.4,4.3,3.2,6.1,5.3c0.2,0.3,0.5,0.4,0.8,0.5c0.3,0.1,0.7,0.2,1,0.3
		c0.4,0.3,0.8,0.5,1.1,0.8c0.4,0.3,0.7,0.6,0.8,0.9c0.5,1.1,1.1,2.2,1.5,3.4c0.5,1.1,0.9,2.3,1.2,3.4c0.6,2.7,0.8,16.9,0.6,21.2
		 M1271.2,150c0.9,3.5,0.3,7.1,0.1,10.6C1269.6,157.1,1271,153.5,1271.2,150z M1402.8,142.2c2.1,3.2,1.4,6.7,1.2,10.2
		C1402,149.3,1402.4,145.8,1402.8,142.2z M1400.1,134.6c1.1-0.3,2.2-0.5,3.3-0.8c0.1,0.2,0.3,0.4,0.4,0.6c-0.4,0.5-0.8,1.2-1.3,1.3
		C1401.7,135.8,1400.3,136.7,1400.1,134.6z M1404,155.9c0.7,1.7,1.3,3.4,2,5c-0.2,0.1-0.5,0.2-0.7,0.3c-2-1.1-1.4-3.3-1.9-5.1
		C1403.6,156,1403.8,155.9,1404,155.9z M1399.4,138.2c0,1,0,2,0,3.1C1398.3,140.5,1398.3,140.1,1399.4,138.2z M1398.4,161.9
		c-0.3,0.1-0.6,0.1-0.9,0.2c-0.2-1.1-0.5-2.2-0.7-3.3c0.3-0.1,0.5-0.1,0.8-0.2C1397.9,159.7,1398.3,160.8,1398.4,161.9z
		 M1455.3,274.7c-0.2,0.1-0.3,0.1-0.5,0.2c-0.5-1.8-1.3-3.5-1.6-5.4c-0.2-1.3-0.5-2-1.6-1.9c0.1-1.3,0.2-2.6,0.3-4
		C1454.2,267.1,1455.6,270.7,1455.3,274.7z M1458.3,287.4c-0.2,0-0.3,0.1-0.5,0.1c-0.6-2.2-1.1-4.4-1.7-6.5
		C1458.3,282.7,1458.4,285,1458.3,287.4z M1460.2,268.9c-1.6-2.1-0.4-4-0.5-5.8C1461.1,264.7,1460.4,266.6,1460.2,268.9z
		 M1469.2,244.5c0.5,1.8,0.9,3.3,1.4,4.7C1468.4,248.2,1468.2,246.7,1469.2,244.5z M1470.4,258c-0.2,0-0.4,0-0.6,0
		c-0.1-1.3-0.1-2.6-0.2-4.3C1471.3,255.1,1471.3,255.1,1470.4,258z" />
        <path class="animate" d="M1381.8,420.5c0.1,1-0.1,2,0.2,2.9c1,2.3,2.2,4.6,3.4,6.9c0.9,1.6,2.1,3,3.2,4.5c0.2-0.1,0.4-0.2,0.5-0.4
		c-1.7-3.3-3.4-6.5-5.3-10C1385.4,422.4,1382.8,421.8,1381.8,420.5z" />
        <path class="animate" d="M1387.3,420.4c-0.7-2.2-1.5-4.4-2.2-6.6C1384.1,418.4,1385.3,421.2,1387.3,420.4z" />
        <path class="animate" d="M1386.8,409.3c-0.2,0.1-0.3,0.1-0.5,0.2c0.8,3,1.5,6,3.6,8.5c0.1-0.1,0.3-0.2,0.4-0.3
		C1389.3,414.9,1388,412.1,1386.8,409.3z" />
        <path class="animate" d="M1387.1,424.2c2.6-0.4,0.6,2.5,2.3,2.6c1.3-2.2-1.3-3.2-1.7-4.9C1387.5,422.7,1387.4,423.3,1387.1,424.2z" />
        <path class="animate" d="M1391.5,431c-0.2-1.2-0.4-2.3-0.6-3.8C1389.5,429.3,1389.8,430.3,1391.5,431z" />
        <path class="animate" d="M1393.3,425.3c0.4,0.9,0.8,1.8,1.4,3.1C1395.3,425.7,1394.9,425.2,1393.3,425.3z" />
        <path class="animate" d="M1281.6,396.6c-0.2,0.1-0.5,0.2-0.7,0.3c0.6,1.9,1,3.8,1.7,5.6c2.4,6.7,6.4,12.9,7.5,20.1c0,0.3,0.7,0.5,1.3,0.9
		c-2.1-6.6-3.9-12.8-6-18.9C1284.4,401.9,1282.9,399.3,1281.6,396.6z" />
        <path class="animate" d="M1284.9,398.6c0.9,1.8,1.9,3.5,2.8,5.2c0.2,0.4,0.4,1.3,0.3,1.5c-1.6,1.1-0.1,1.7,0.3,2.7c0.4-0.5,0.6-0.9,1-1.4
		c0.8,1.9,1.6,3.5,2.3,5.2c0.2-0.1,0.4-0.2,0.6-0.3c-2.1-5.3-3.7-10.9-7.8-15.2C1284.2,397.2,1284.5,397.9,1284.9,398.6z" />
        <path class="animate" d="M1283.2,412.7c0.6,1.1,1.2,2.2,1.8,3.3c0.2-0.1,0.3-0.2,0.5-0.3c-0.5-1.1-1.1-2.3-1.6-3.4
		C1283.7,412.5,1283.5,412.6,1283.2,412.7z" />
        <path class="animate" d="M1255.5,328.5c-0.7-3.2-1.8-5.2-3.2-4.9c0.5,1.2,0.9,2.4,1.4,3.6c0.5,1.2,0.9,2.5,1.6,4.3c0.7-0.9,1.2-1.6,1.7-2.3
		C1256.7,329,1256.4,328.9,1255.5,328.5z" />
        <path class="animate" d="M1235.4,272.5c0-3.1,0-5.9,0-8.7C1234.2,266.6,1233.2,269.5,1235.4,272.5z" />
        <path class="animate" d="M1255.9,331.8c0.3,1.5,0.6,3,1,4.6c0.2,0,0.7,0,1.2-0.1C1258.2,332.7,1258,332.7,1255.9,331.8z" />
        <path class="animate" d="M1298.4,364.4c0.1,0.6,0.2,1.1,0.3,1.5c0.4,1.6,0,2-1.6,1.7c-0.7-0.1-1.3-0.3-1.9-0.4c0,0.2-0.1,0.4-0.1,0.5
		c0.9,0.2,1.8,0.6,2.7,0.5c0.7,0,1.9-0.4,2-0.8C1299.9,366.4,1300.2,365,1298.4,364.4z" />
        <path class="animate" d="M1295.9,354.5c-0.8-1-1.7-2-2.6-3c-0.4,1-0.7,1.6-1,2.4c1,0.4,2,0.8,3.1,1.3C1295.6,354.9,1295.7,354.7,1295.9,354.5z" />
        <path class="animate" d="M1295.7,340.4c0.1,0.6,0.3,1.2,0.5,1.8c-0.1,0.1-0.2,0.1-0.4,0.2c-0.5-0.3-0.9-0.6-1.4-1c-0.1,0.2-0.2,0.4-0.3,0.6
		c1,0.5,2.1,1,3.3,1.5C1297.4,341.3,1296.9,340.6,1295.7,340.4z" />
        <path class="animate" d="M1383,372.4c-1.3-0.8-2.5-1.7-3.8-2.5c-0.2,0.1-0.3,0.2-0.5,0.4c0.1,0.5,0.1,1,0.3,1.8
		C1380.9,370.2,1381.5,372.8,1383,372.4z" />
        <path class="animate" d="M1423.3,345.7c2.6-0.8,5.3-4.6,5-6.9C1426.7,341.1,1424.9,343.4,1423.3,345.7z" />
        <path class="animate" d="M1437.8,324.6c0.2,0.2,0.5,0.3,0.7,0.5c0.9-1.7,1.8-3.3,2.8-5c-0.2-0.1-0.3-0.2-0.5-0.3
		C1439.8,321.4,1438.8,323,1437.8,324.6z" />
        <path class="animate" d="M1409.5,352.2c-2.6,1.9-6.3,6.9-7.6,10.3C1405.1,362,1406.3,360.4,1409.5,352.2z" />
        <path class="animate" d="M1375.1,361.3c-0.6-1.6-1.2-2.2-2.8-2.3c-1-0.1-2-0.1-3.1,0c-2.7,0.3-5-0.6-7.3-2s-4.9-2.4-7.5-3.3
		c-1.6-0.6-3.3-0.7-4.9-0.9c-3.6-0.4-7.3-0.9-10.5,1.5c-0.3,0.2-1,0.1-1.5,0c-2.9-0.6-5.8-1.5-8.7-2c-3.3-0.5-6.8-0.5-9.3,2
		c-1.6,1.6-2.8,3.1-5.1,3.5c0,0,0,0.2-0.1,0.6c3.1-0.2,6.1-0.2,9.2-0.5c1.2-0.1,2.1-0.2,2.3,1.2c5.4-1.5,15.5,0.8,20.6,2.5
		c-9.4-0.5-18.8-1-28.5-1.5c0.7,0.3,1.1,0.5,1.5,0.6c5,1.7,10.1,1.6,15.3,1.7c5.9,0,11.8,0.2,17.6,1.9c1.2,0.4,2.4,0.9,3.6,1.3
		c0.1-0.1,0.1-0.3,0.2-0.4c-0.5-0.2-1.1-0.4-1.6-0.7c-0.5-0.3-0.9-0.6-1.4-0.9c0.1-0.1,0.2-0.2,0.3-0.3c0.3,0.2,0.7,0.4,1,0.6
		c0.3,0.2,0.7,0.3,1.1,0.4c0-0.2,0.1-0.3,0.1-0.5c-11.3-6.3-23.8-6.6-36.3-7.3c2.8-4.5,13.9-4.3,19.7,0.5c0.7-1.2,1.6-1.4,2.9-0.7
		c2.4,1.2,4.9,2.1,7.4,3.1c3.1,1.3,6.3,2.5,9.4,3.8c-5.5-3.8-11.5-6.4-17.9-8.1c1.8-2.4,7-2.6,9.2-0.5c0.3,0.3,0.8,0.5,1.2,0.6
		c1.3,0.3,2.7,0.5,4.1,1c1.4,0.4,2.7,1,4.3,1.7c0.6,1.5,0.6,1.5,3.9,2.6c0.3,0.9,0.5,1.8,0.8,2.7c0.2-0.2,0.3-0.3,0.5-0.5
		c1.2,0.5,2.3,0.9,3.3,1.3c-0.7-0.9-1.5-1.9-2.3-2.9c0.1-0.2,0.3-0.3,0.4-0.5c1.5,0.8,3.1,1.6,4.6,2.4c0.1-0.2,0.2-0.4,0.4-0.6
		c-1-0.7-2.1-1.4-3.2-2.2C1370.7,358.1,1372.8,360.3,1375.1,361.3z M1363.4,360.4c-1-0.8-1.9-1.5-2.9-2.3c0.1-0.2,0.1-0.3,0.2-0.5
		c1.3,0.5,2.6,1.1,4.5,1.8C1364.3,359.9,1363.9,360.2,1363.4,360.4z" />
        <path class="animate" d="M1419.7,352.6c0.3,0.8,0.5,1.4,0.7,1.9c-3.9,2.3-6.2,7.3-11.7,6.8c0,0.6,0,1.2,0,1.7c-4.2,1.3-8.3,2.6-12.5,3.7
		c-4.2,1.1-8.6,1.7-13,1c-1.1-0.2-2.1-0.3-3.2,0.5c-0.6,0.4-2,0.1-2.8-0.4c-1.1-0.6-2-1.5-3-2.3c-0.8-0.6-1.6-1.1-2.4-1.6
		c-0.1,0.2-0.2,0.3-0.4,0.5c1,0.8,2,1.6,3,2.4c0.9,0.7,1.7,1.5,2.6,2.2c0.5,0.4,1.2,0.8,1.7,0.8c5.4-0.5,10.7-0.9,16.1-1.7
		c5.3-0.8,10.4-2.5,15.1-4.9c1.3-0.7,2.8-0.9,4.1-1.4c0.1,0.3,0.3,0.6,0.4,0.9c-5.9,6.9-10.8,15.1-21.2,16.6
		c2.6,1.7,4.9,1.7,7.7-0.4c2.6-2,5-4.2,7.5-6.4c0.2-0.2,0.2-0.6,0.2-0.9c0.1,0.2,0.1,0.3,0.2,0.5c0.7-0.3,1.9-0.4,2.1-0.9
		c2.2-5,5.7-8.9,9.4-12.8C1422.6,356.2,1422.4,354.7,1419.7,352.6z" />
        <path class="animate" d="M1389.3,379.3c0.2-0.1,0.3-0.1,0.5-0.2c0-2.4-0.7-4.5-2.8-6.1c0.1,1.4,0.2,2.6,0.4,3.9c0.4,0.2,1.1,0.3,1.4,0.7
		C1389,378.1,1389.1,378.7,1389.3,379.3z" />
        <path class="animate" d="M1390.5,372.8c0.2,1.4,0.3,2.8,0.5,4.2c0.2,0,0.4,0,0.6-0.1c-0.1-1.4-0.2-2.8-0.3-4.2
		C1391.1,372.7,1390.8,372.7,1390.5,372.8z" />
        <path class="animate" d="M1414.6,351.7c0.3-1,0.6-1.9,0.9-2.9c-0.3-0.1-0.6-0.2-0.8-0.3c-0.4,0.9-0.7,1.9-1.1,2.8
		C1414,351.4,1414.3,351.6,1414.6,351.7z" />
        <path class="animate" d="M1431.2,335.1c0.7,0.2,1.4,0.5,2.1,0.7c0-0.2,0.1-0.3,0.1-0.5c-0.4-0.5-0.8-1-1.4-1.9
		C1431.6,334.1,1431.3,334.6,1431.2,335.1z" />
        <path class="animate" d="M1394,177.1c0.1,0.1,0.3,0.2,0.4,0.3c1.1-1.6,1.9-1.6,3,0.1c0.7,1.1,1.2,2.5,1.9,3.7c0.6,1.3,1.3,2.5,1.9,3.6
		c0.7-1.3,1.3-2.4,1.9-3.5c-0.5-0.9-1.1-1.9-1.6-2.9c-0.3-0.6-1-1.2-1-1.8c0.1-1.7-0.7-2.9-2.1-4.5c0.2,2,2.3,3.1,1.2,5.2
		c-0.6-0.8-0.9-1.4-1.5-1.9c-0.7-0.6-1.5-1-2.2-1.4C1395.3,175.2,1394.6,176.1,1394,177.1z" />
        <path class="animate" d="M1281,181.5c-0.4,0.9-0.7,1.8-1.3,2.6c-0.6,0.8-1.3,1.4-2,2.1c-0.2-0.1-0.4-0.3-0.6-0.4c0.3-3.1,0.6-6.2,0.8-9.3
		c-0.2,0-0.4,0-0.6,0c-0.3,1.5-0.6,3-0.8,4.5c-0.2,1.4-0.6,2.9-0.4,4.2c0.1,0.8,1.2,1.6,1.9,2.2c0.2,0.1,1-0.1,1.2-0.4
		c0.9-1.7,1.7-3.4,2.5-5.1C1281.5,181.7,1281.4,181.6,1281,181.5z" />
        <path class="animate" d="M1410.8,209.9c0.1,0.3,0.7,0.3,1.1,0.4c0-0.4,0.1-0.9-0.1-1.2c-0.7-1.3-1.6-2.5-2.3-3.8c-1.9-3.5-3.7-7.1-5.5-10.6
		c-0.3,0.1-0.5,0.2-0.8,0.3c0.9,2,1.8,4.1,2.8,6.1C1407.5,204.1,1409.1,207,1410.8,209.9z" />
        <path class="animate" d="M1394.7,177.7c0,0.9-0.1,1.7-0.1,2.7c-0.5-1-0.8-1.6-1-2.2c-0.2,0.1-0.3,0.2-0.5,0.3c0.9,2.3,1.2,5,4.3,6.4
		C1396.1,182.5,1397.6,179.5,1394.7,177.7z" />
        <path class="animate" d="M1386.5,169c0.3,0.3,1.2,0.1,1.7,0.1c-1.5-1.1-2.4-2.2-1.8-4.2c0.8,0.5,1.5,0.9,2.5,1.5c-0.6-1.2-1.1-2.1-1.5-3
		c-0.8,0-1.7,0-2.9,0C1384.7,165.7,1384.9,167.6,1386.5,169z" />
        <path class="animate" d="M1256.9,206.9c-0.6,0.3-1,0.6-1.1,0.6c0,3,0,5.6,0,8.3c0.1,0,0.3,0,0.4,0C1256.9,212.9,1258,210,1256.9,206.9z" />
        <path class="animate" d="M1285.9,157c-2.4,3-2.1,6.2-1,9.6C1285.2,163.5,1285.6,160.4,1285.9,157z" />
        <path class="animate" d="M1259.5,202.7c-0.2,2.9-0.4,5.7-0.7,8.9C1260.2,209.6,1260.7,205.2,1259.5,202.7z" />
        <path class="animate" d="M1395.5,173c0.2-0.1,0.3-0.2,0.5-0.2c-1.2-2.2-2.4-4.4-3.6-6.6C1392.4,169,1393.3,171.4,1395.5,173z" />
        <path class="animate" d="M1401.3,189.9c-0.4-0.4-1.2-0.3-2-0.5c1.2,1.8,2.1,3.2,3,4.6C1402.9,192.3,1402.4,191,1401.3,189.9z" />
        <path class="animate" d="M1414.9,216.3c0.3-0.2,0.5-0.4,0.8-0.6c-1.2-1.6-2.4-3.1-3.5-4.7c-0.2,0.1-0.4,0.3-0.6,0.4
		C1412.7,213.1,1413.8,214.7,1414.9,216.3z" />
        <path class="animate" d="M1268,212.6c-1.1,1.5-2,3-3,4.4C1267.4,216.8,1268,215.5,1268,212.6z" />
        <path class="animate" d="M1399.3,185.1c-0.9,0.6-1.4,1-2.1,1.5c0.1,0.7,0.3,1.7,0.5,2.8C1397.7,187.8,1399.9,186.9,1399.3,185.1z" />
        <path class="animate" d="M1282.9,160.8c-0.2,0-0.3-0.1-0.5-0.1c-0.7,2.6-1.4,5.2-2,7.8c0.2,0,0.4,0.1,0.5,0.1C1281.6,166,1282.2,163.4,1282.9,160.8
		z" />
        <path class="animate" d="M1258.4,219.8c0.6,1,1.2,2,1.7,3c0.2-0.1,0.4-0.2,0.7-0.4c-0.5-1-1-2.1-1.5-3.1C1259,219.5,1258.7,219.7,1258.4,219.8z" />
        <path class="animate" d="M1259,212.5c-0.1,1.1-0.2,2.3-0.3,3.4c0.2,0,0.3,0,0.5,0C1259.6,214.9,1260.7,213.8,1259,212.5z" />
        <path class="animate" d="M1260.2,200.1c0.2,0,0.5,0,0.7,0c0.2-1.3,0.3-2.5,0.5-3.8c-0.2,0-0.4-0.1-0.6-0.1C1260.5,197.5,1260.4,198.8,1260.2,200.1z
		" />
        <path class="animate" d="M1251.9,262.2c-0.1,1.2,0.1,2.4,0,3.6c-0.1,1.3-0.6,2.4-2.5,2.8c0-2.1-0.1-4,0-5.8c0.4-4.1,1-8.1,1.4-12.1
				c0.4-3.4,0.5-6.9-0.8-10.3c-0.4,0.2-0.7,0.3-1,0.4c-0.3,0.1-0.5,0.3-0.8,0.5c0.9,3.9,0.9,7.7-0.4,11.2c-0.7-0.4-1.4-0.7-2.2-1.1
				c0.4,1.9,0.8,3.3,1.1,4.9c0.2,0.1,0.8,0.3,1.5,0.7c-2.1,1-2.3,2-1.2,2.9c0.1,1.1,0,1.8,0.1,2.4c0.3,2.9,0.6,5.9,1,8.9
				c2,0,3.2-1.1,3.8-3.2C1252.4,265.9,1252.7,264.1,1251.9,262.2z" />
        <path class="animate" d="M1445.9,274c-0.8,1.7-1.8,3.3-2.4,5c-0.7,2.1-1,4.3-1.5,6.5c0.3,0.1,0.6,0.2,1,0.3c0.7-2,1.8-4,2-6
		c0.2-1.9,0.8-3.4,2.1-4.8c0.7-0.8,1.4-1.5,2.2-2.4C1447.6,271.9,1446.7,272.5,1445.9,274z" />
        <path class="animate" d="M1425.4,252.7c0.4,0.5,0.9,1,1.3,1.6c0.4,0.5,1,1.2,0.9,1.7c-0.3,2.3-0.9,4.6-1.3,6.9c0.7-0.1,1.3-0.3,1.8-0.3
		c0.5-1.9,1-3.6,1.2-5.4c0.1-0.9-0.3-1.8-0.4-2.7c-1.3,0.3-1.4-0.8-1.8-1.5c-0.2-0.4-0.7-0.5-1.1-0.8
		C1425.8,252.4,1425.6,252.6,1425.4,252.7z" />
        <path class="animate" d="M1246.4,274.4c-0.1-0.1-0.3-0.1-0.4-0.2c-0.4-1.7-0.7-3.4-1.1-5c-0.2,0-0.4,0.1-0.6,0.1c0.1,2.9-0.2,5.9,1.8,8.5
		c1.7-2.1,2.1-4.2,1.1-5.6C1247,272.9,1246.7,273.7,1246.4,274.4z" />
        <path class="animate" d="M1255.7,253.2c-0.6,0.3-1.1,0.6-1.7,1c-0.2-1.8-0.4-3.2-0.6-4.6c-1.6,2.8-1.1,5.9,1,7.6c0.6-1.3,1.1-2.6,1.7-3.8
				C1256,253.3,1255.9,253.3,1255.7,253.2z" />
        <path class="animate" d="M1245.6,291.6c-0.1-0.1-0.6,0-0.7,0.2c-0.6,0.6-1.3,1.2-1.8,1.9c-0.2,0.3-0.3,0.8-0.3,1.2c0,0.4,0.3,0.9,0.6,1.5
		c2.4,1,2.4,1,2.5-1.9c0-0.7,0.2-1.4,0.2-2.1C1246,292.1,1245.9,291.7,1245.6,291.6z" />
        <path class="animate" d="M1240.9,252.1c0.2,0,0.3,0,0.5,0c0.7-7.5,0.7-7.5-0.5-8.8C1240.9,246.3,1240.9,249.2,1240.9,252.1z" />
        <path class="animate" d="M1249.6,239.3c0.1-2.6,0.1-5.2,0.1-7.7c-0.2,0-0.4,0-0.6,0c0,2,0.1,4,0,6.1c0,0.8-0.5,1.6-0.8,2.5
		C1248.6,239.9,1249.5,239.6,1249.6,239.3z" />
        <path class="animate" d="M1258.2,251c-0.5,1.4-0.8,2.7,0.8,3.9C1259.9,252.9,1259.7,252,1258.2,251z" />
        <path class="animate" d="M1252.2,241.4c0-2,0-4,0-6c-0.3,0-0.6,0-0.8,0c0.1,2,0.2,4,0.4,6C1251.9,241.4,1252.2,241.4,1252.2,241.4z" />
        <path class="animate" d="M1238.2,266c0.4,2.3,0.8,4.4,1.2,6.5C1239.9,268.4,1239.6,267.2,1238.2,266z" />
        <path class="animate" d="M1426.1,225.6c-0.7-1.4-0.9-3.1-3.1-3.2c0.9,1.2,1.8,2.4,2.7,3.6C1425.8,225.8,1425.9,225.7,1426.1,225.6z" />
        <path class="animate" d="M1245.2,266.8c0-0.2-0.1-0.3-0.1-0.5c-0.5-0.1-1-0.1-1.5-0.2c0.1-0.1,0.2-0.2,0.3-0.3c-0.4-0.5-0.7-0.9-1.1-1.4
		c-0.2,0.2-0.4,0.4-0.6,0.5c0.3,0.9,0.6,1.7,0.9,2.7C1243.9,267.4,1244.5,267.1,1245.2,266.8z" />
        <path class="animate" d="M1420.7,243c-0.1,1.8-0.1,3.2,2,4C1422.1,245.6,1422.7,243.9,1420.7,243z" />
        <path class="animate" d="M1440.6,281.4c-0.2-0.2-0.4-0.3-0.7-0.5c-1.6,0.6-2.1,1.8-1.6,3.8C1439.2,283.6,1439.8,282.5,1440.6,281.4z" />
        <path class="animate" d="M1249,300.2c1.1,0.8,2.2,1.6,3.4,2.5C1252,300.5,1251.4,300,1249,300.2z" />
        <path class="animate" d="M1243.5,299c0.4,2,0.7,4,1.1,6c0.2,0,0.5-0.1,0.7-0.1c-0.4-2-0.8-4-1.2-6C1243.9,298.9,1243.7,298.9,1243.5,299z" />
        <path class="animate" d="M1243.6,284.7c0.1-1.2,0.2-2.3,0.4-3.8C1242,281.8,1242,283.5,1243.6,284.7z" />
        <path class="animate" d="M1257.7,244.2c-0.2,0-0.4,0.1-0.6,0.1c0.2,1.3,0.4,2.7,0.6,4c0.2-0.1,0.5-0.1,0.7-0.2
				C1258,246.9,1258.9,245.3,1257.7,244.2z" />
        <path class="animate" d="M1414.4,232.4c-0.2,0.1-0.4,0.2-0.5,0.4c0.8,1.4,1.6,2.8,2.4,4.2c0.2-0.2,0.4-0.3,0.7-0.5
				C1416.1,235.2,1415.3,233.8,1414.4,232.4z" />
        <path class="animate" d="M1251.6,223.7c0,1.2,0,2.3,0,3.5C1252.9,225,1252.9,224.7,1251.6,223.7z" />
        <path class="animate" d="M1243.6,261.6c-0.1-0.6-0.6-1.1-0.9-1.6c-0.1,0.1-0.2,0.1-0.4,0.2c0,0.9,0,1.7,0,2.6c0.2,0.1,0.4,0.2,0.6,0.2
		C1243.2,262.6,1243.7,262.1,1243.6,261.6z" />
        <path class="animate" d="M1426.6,248c-0.5,1.3-0.9,2.5-1.3,3.8C1426.9,251.1,1427.3,250.3,1426.6,248z" />
        <path class="animate" d="M1428.9,272.7c0.2,1.7,0.3,3.2,0.4,4.7C1429.9,273.5,1429.9,273.5,1428.9,272.7z" />
    </g>
    <g id="eyes">
        <path id="eye-left" class="animate" d="M1321.9,69.4c0-3.3,0-6.3,0-9.6c-1.1,3.8-2.1,7.2-3.1,10.4c-2.1,0.4-4,0.7-5.9,1.1c-4.6,1-7.9-0.7-9.4-5.2
		c-0.4-1.2-0.5-2.6-0.9-3.8c-0.6-2.2,0.4-3.5,2-4.7c3.2-2.2,6.6-3.7,10.6-4.2c4.9-0.6,8.4,1.9,8.9,6.8c0.2,2.1-0.1,4.3-0.5,6.4
		C1323.3,67.7,1322.5,68.5,1321.9,69.4z M1315.6,65.2c0.3-2.5,0.1-3.6-1.4-4.5c-0.5,1.7-2.2,3.2-1.1,5
		C1314.2,65.5,1314.9,65.3,1315.6,65.2z M1310.2,61.4c-0.1,0-0.3,0.1-0.3,0.1c-0.4,0.7-0.8,1.3-1,2c-0.1,0.3-0.1,0.9,0.1,1.1
		s0.8,0.2,1.1,0.1C1311.2,64.2,1311.2,63.1,1310.2,61.4z" />
        <path id="eye-right" class="animate" d="M1374.4,62.9c-0.3,3.5-1.6,7.2-4.8,10c-1.3,1.1-2.4,2.1-4.6,1.4c-2.8-0.9-5.5-1.7-7.5-4
		c-1.9-2.1-2.1-4.8-0.6-7.1c2.9-4.7,9.8-7.4,14.3-5.5C1373.6,58.6,1374.5,60,1374.4,62.9z M1363.4,68.3c-0.1,0.2-0.2,0.5-0.2,0.7
		c0.9,0.4,1.8,1,2.7,1.2c0.4,0.1,0.9-0.6,1.4-1c-0.4-0.3-0.8-0.9-1.3-1C1365.1,68,1364.3,68.2,1363.4,68.3z M1364.3,63.8
		c0.1,0.2,0.1,0.3,0.2,0.5c1.2,0.6,2.4,1.1,3.7,1.7c0.1-0.1,0.2-0.2,0.4-0.4c-0.4-0.7-0.7-1.8-1.3-2
		C1366.4,63.3,1365.3,63.7,1364.3,63.8z" />
    </g>
    <g id="arms-down">
        <path id="arm-down-right" class="animate" d="M1458.3,302.8c0.6,2.8,1.2,5.3,1.8,7.8c0.4,1.5,1,3,1.6,4.5c0.4,0.9,1.1,1.7,1.2,2.6
		c0.5,2.6,0.6,5.2,1.1,7.8c0.3,1.2,1.1,2.3,1.8,3.7c1.8-2.3,2.7-4.3,1.8-6.8c1.9-0.7,2.2-2.4,2.5-4.1c0.4-2.4,0-5.1,1.8-7.2
		c0.2-0.2,0-0.8,0-1.2c0.1-3.6-0.1-7.2,0.2-10.8c0.8-8.4,1.8-16.7,2.6-25" />
        <path id="arm-down-left" class="animate" d="M1207.9,243.5c-0.7,15.5-0.1,30.9,3,46.2c2,10.1,4.5,20,9.1,29.3c1.2,2.4,2.7,4.7,4,7.1
		c0.2,0,0.4-0.1,0.6-0.1c0.3-0.9,0.6-1.9,1-3.2c0.4,1.3,0.7,2.1,1,2.9c0.2,0,0.3-0.1,0.5-0.1c1.5-12.4,0.4-25,2.7-37.4L1207.9,243.5
		z M1214.4,277.4c-0.2-0.1-0.3-0.3-0.5-0.5c-1.3-1.4-2-3.8-2-6.2c-0.1-2.1,0.4-4.2,1.4-5.6C1214.2,269.2,1215.4,273.1,1214.4,277.4z
		 M1215.7,273.4c-0.2-1.7-0.3-3.1-0.5-4.7l0,0l0,0c0.9,0.6,1.4,1.2,1.5,2C1216.9,271.5,1216.5,272.3,1215.7,273.4z M1223.9,322.1
		c-2.4-4.2-3.2-8.8-3.3-13.6c1.4,3.6,3.5,6.9,3.6,10.8C1224.2,320.3,1224.2,321.2,1223.9,322.1z M1222.5,301.4
		c1.8,1.1,1.4,2.3,1.3,3.8C1221.7,304.4,1223,302.9,1222.5,301.4z M1225.4,298.7L1225.4,298.7L1225.4,298.7c-2-3.1-1.5-6.8-2.2-10.1
		c-0.2,0-0.3,0.1-0.5,0.1c0.5,3.3,0.9,6.5,1.4,9.8l0,0l0,0c-3.4-7.1-3.3-15-4.5-22.6l0,0l0,0c0.2-0.1,0.3-0.2,0.5-0.3
		c0.4,0.6,1.1,1.1,1.3,1.7c1,3.1,1.7,6.2,2.7,9.2C1225.2,290.4,1226,294.4,1225.4,298.7z" />
    </g>
    <g id="arms-up" style="display:none">
        <path id="arm-up-right" class="animate" d="M1474.6,273.3c1.6-2.3,3.1-4.5,4.5-6.6c0.8-1.3,1.5-2.8,2.2-4.2c0.4-0.9,0.5-2,1.1-2.6
		c1.6-2.1,3.4-4,5-6.1c0.7-1,10.1-13.5,10.6-15c-2.9,0.2-15.4,8.4-16.7,10.8c-1.8-0.9-3.4,2.1-4.8,3c-2,1.3-2.3,5.1-5.1,5.2
		c-0.3,0-0.6,0.5-0.9,0.8c-2.7,2.4-5.2,5-8.1,7.2c-6.7,5.1-4.5,6.4-11.1,11.4" />
        <path id="arm-up-left" class="animate" d="M1233.9,260.1c-6.8-13.9-1.1-17.7-11.1-29.6c-6.6-7.9-13.5-15.4-22-21.4c-2.2-1.5-4.6-2.8-6.9-4.3
		c-0.2,0.1-0.3,0.3-0.5,0.4c0.2,0.9,0.4,2,0.7,3.3c-1-1-1.6-1.5-2.3-2.1c-0.2,0.1-0.2,0.2-0.4,0.3c4.6,11.6,11.6,22.1,15.5,34.1
		L1233.9,260.1z M1225.7,242.9c0.2,0,0.4,0.1,0.7,0.2c1.8,0.6,3.6,2.4,4.7,4.5c1.1,1.8,1.7,3.9,1.5,5.6
		C1229.8,250,1226.8,247.2,1225.7,242.9z M1226.4,247c1,1.4,1.7,2.6,2.7,3.9l0,0l0,0c-1.1-0.1-1.8-0.4-2.3-1
		C1226.3,249.3,1226.3,248.4,1226.4,247z M1195.9,208.2c4.1,2.5,7,6.2,9.4,10.4c-3-2.5-6.4-4.4-8.3-7.8
		C1196.5,209.9,1196.1,209.1,1195.9,208.2z M1207,225.7c-2.1-0.1-2.3-1.3-3-2.7C1206.3,222.7,1205.9,224.6,1207,225.7z
		 M1205.8,229.5L1205.8,229.5L1205.8,229.5c3.2,1.8,4.6,5.3,6.8,7.8c0.2-0.1,0.2-0.2,0.4-0.3c-2-2.7-3.9-5.3-5.9-7.9l0,0l0,0
		c6.4,4.6,10.1,11.6,14.8,17.7l0,0l0,0c-0.1,0.2-0.2,0.3-0.3,0.5c-0.6-0.3-1.5-0.4-2-0.9c-2.4-2.2-4.5-4.6-6.8-6.8
		C1209.9,236.7,1207.3,233.5,1205.8,229.5z" />
    </g>
    <g id="mouth">
        <path id="mouth-lower" class="animate" d="M1338.8,100L1338.8,100c-2.1,0.9-2.8,1.6-5.6,0.1l-4.4,0.1c0.2,0.2,0.4,0.3,0.6,0.5
		c0.1,0.1,0.1,0.2,0.1,0.4l0,0c-0.1,0.2-0.3,0.2-0.4,0.2c-0.7-0.3-1.3-0.7-2-1l-17.4,0.4c3.6,3.9,7.1,7.8,10.4,11.9
		c3,3.6,6.3,6.8,10.5,8.9c0.3,0.1,0.5,0.3,1.2,0.6c-1.1,0.4-1.5,0.6-2.5,0.9c2.6,0.7,4.6,1.6,5,4.3c0.2-0.1,0.4-0.1,0.6-0.2
		c-0.2-0.7-0.3-1.3-0.4-1.8c1-0.9,2.2-1.6,3-2.6c1.4-1.9,2.8-3.5,5.8-2.9c-0.4-0.8-0.6-1.2-0.8-1.6c0.5-0.3,1.2-0.4,1.7-0.8
		c4-3.5,8.1-6.9,12-10.6c2.3-2.2,4.2-4.9,6.4-7.2L1338.8,100z M1333.7,105.7c1.3,0.7,2.6,1.3,3.9,2c-0.1,0.2-0.1,0.4-0.2,0.5
		c-1.3-0.6-2.7-1.1-4-1.7C1333.5,106.3,1333.6,106,1333.7,105.7z M1326.7,118.4c-1-1.1-2-2.2-2.9-3.3c0.2-0.2,0.4-0.3,0.6-0.5
		c1,1.1,1.9,2.2,2.9,3.4C1327.2,118.1,1326.9,118.3,1326.7,118.4z M1334.4,121.3c-1-2.1-2.1-4.2-3.3-6.7c0.9,0.2,1.8,0.3,3,0.5
		c-5.6-4.4-12.3-6.7-15.8-13.2c7.2,4.6,14.3,9.3,21.5,13.9C1338,117.4,1337.4,120.5,1334.4,121.3z M1341.2,114c-0.3-0.4-1-1-1.8-1.9
		c2.7-1.6,5.1-3,7.6-4.4c0.1,0.1,0.2,0.3,0.3,0.4C1345.4,109.8,1343.4,111.7,1341.2,114z" />
        <path id="mouth-upper" class="animate" d="M1332,73.2c-0.1,1.8-0.8,0.9-1.2,3.7c-1.7,2.1-2,0.6-3.1,1.1s-2.6,0.6-5.6,1.3c-0.3,0.1-0.6,0.2-1,0.2
		s-0.7,0.2-1,0.2c-0.1,0-0.2,0-0.3,0c-0.1,0-0.2,0-0.2,0.1h-0.1h0c-0.7,0.2-1,0.6-1.3,1.1s-0.4,1.1-0.5,1.7
		c-0.1,0.2-0.1,0.4-0.2,0.6c-0.1,0.2-0.2,0.4-0.3,0.5c-0.8,0.6-1.6,1.2-2.4,1.8s-1.6,1.2-2.5,1.8s-1.7,1.1-2.6,1.7s-1.8,1.1-2.7,1.7
		c0.2,0.4,0.4,0.7,0.6,1.1s0.5,0.8,0.8,1.3c-0.2,0.2-0.4,0.3-0.6,0.5c-0.2,0.2-0.4,0.4-0.7,0.6c0.8,0.6,0.8,1,0.6,1.4
		c-0.2,0.4-0.7,0.8-1,1.2c-0.2,0.2-0.3,0.5-0.4,0.7s-0.2,0.5-0.4,0.8c0.3,0.2,0.5,0.3,0.8,0.4c0.3,0.1,0.6,0.3,0.8,0.4
		c0.4,0.2,0.9,0.3,1.3,0.5c0.5,0.2,0.9,0.3,1.2,0.6l8.6-0.2l8.6-0.2c-0.2-0.1-0.3-0.1-0.5-0.2c-0.2-0.1-0.3-0.2-0.5-0.2l0.2-0.3
		l0.2-0.3c0.5-0.1,1,0,1.4,0.2c0.4,0.2,0.8,0.5,1.1,0.8l2.2-0.1l2.2-0.1c-0.1-0.1-0.2-0.1-0.4-0.2c-0.1-0.1-0.3-0.2-0.4-0.2h0.1h0.1
		c-1.7-1-3.2-2-4.8-3.1s-3.1-2.2-4.7-3.2c-0.4-0.3-0.7-0.5-1-0.7c-0.3-0.2-0.7-0.5-1-0.7c-0.1,0.1-0.1,0.1-0.2,0.2s-0.1,0.2-0.2,0.2
		c0.5,0.4,0.9,0.7,1.4,1.1c0.5,0.4,1,0.7,1.5,1.1c-1.1,0.5-2.1,0.4-2.9-0.2c-0.8-0.5-1.5-1.5-2.1-2.9c0.5-0.2,0.9-0.3,1.3-0.4
		c0.4-0.1,0.9-0.3,1.3-0.4c0-0.1,0-0.2,0.1-0.3s0-0.1,0-0.1c-0.8-0.8-1-1.3-0.8-1.8c0.2-0.5,0.7-1,1.5-1.5c2-1.4,3.9-2.7,5.7-4.3
		s3.4-3.2,4.8-5.2c0.2-0.3,0.6-0.4,1.1-0.4c0.5-0.1,1,0,1.4,0c0.4,0.1,0.8,0.2,1.2,0.3c0.4,0.2,0.8,0.4,1.2,0.6
		c-0.3,0.8-0.2,1.4,0.2,2s0.8,1.2,1.4,1.7c0.7,0.7,1.4,1.4,2,2.1c0.6,0.7,1.2,1.4,1.8,2.1c0.1,0.1,0.1,0.3,0,0.6
		c-0.1,0.3-0.2,0.6-0.3,1c1.2,1.1,2.4,2.2,3.8,3.4c1.4,1.2,2.9,2.6,4.4,4c-0.3,0.2-0.6,0.4-0.9,0.6s-0.6,0.4-0.9,0.5
		c-0.5,0.3-0.9,0.5-1.4,0.7c-0.5,0.2-1,0.4-1.5,0.6c-0.2,0.1-0.5,0.1-0.7,0c-0.3-0.1-0.5-0.2-0.7-0.3c-0.4-0.3-0.8-0.7-1.1-1
		s-0.7-0.8-1-1.2c1,0.1,1.9,0.7,2.9,1s1.9,0.2,2.9-1.1c-2.3-0.8-4.6-1.4-6.8-2.1s-4.3-1.6-6.1-3c0.2-0.8,0.4-1.4,0.5-2.1
		c0.2-0.6,0.3-1.2,0.5-1.8c-0.1-0.1-0.2-0.1-0.2-0.2c-0.1-0.1-0.2-0.1-0.3-0.2c-0.3,0.1-0.6,0.2-1,0.3c-0.3,0.1-0.7,0.2-1,0.4
		c0-0.2-0.1-0.4-0.2-0.7c-0.1-0.3-0.2-0.5-0.3-0.8c-0.2,0.1-0.4,0.2-0.5,0.3c-0.2,0.1-0.3,0.2-0.2,0.2c0.1,0.4,0.1,0.8,0.2,1.2
		s0.2,0.8,0.3,1.2c-0.5-0.3-1-0.6-1.5-1c-0.6-0.4-1.2-0.7-1.8-1.1c-0.1,0.1-0.2,0.2-0.3,0.4s-0.2,0.3-0.3,0.4
		c0.6,0.6,1.1,1.3,1.6,1.9c0.6,0.6,1.1,1.2,1.8,1.7c1.2,0.9,2.4,1.6,3.6,2.4c1.2,0.8,2.5,1.6,3.6,2.4c0.8,0.6,1.6,1.3,2.3,2
		c0.7,0.7,1.4,1.5,2,2.3c-1.7,0.2-3.2,0.1-4.6-0.3c-1.4-0.4-2.7-1.1-3.9-2.1c-1.6-1.3-3.1-2.6-4.5-4s-3-2.7-4.5-4
		c-0.3-0.2-0.5-0.4-0.8-0.6s-0.5-0.4-0.8-0.5c1.2,3.2,3.2,5.6,5.5,7.6c2.4,2,5.2,3.6,8.1,5.2l10.4-0.2l10.4-0.2
		c-0.1,0-0.2,0-0.4-0.1c-0.1,0-0.3-0.1-0.4-0.1c-0.3-0.1-0.6-0.2-0.9-0.4c-0.3-0.1-0.6-0.3-0.9-0.4c0.7-0.3,1.3-0.6,1.9-0.9
		c0.6-0.3,1.1-0.5,1.6-0.6c0.2-0.1,0.3,0.1,0.5,0.3s0.4,0.4,0.6,0.6c-0.3,0.3-0.5,0.6-0.7,0.8s-0.5,0.5-0.7,0.7
		c-0.1,0-0.1,0-0.2,0.1c0,0-0.1,0.1-0.2,0.1l1.2-0.1l1.2-0.1c0.6-0.7,1.3-1.3,2-1.9c0.7-0.6,1.5-1.2,2.2-1.9
		c-0.9,0.1-1.6,0.1-2.4,0.2c-0.7,0.1-1.4,0.2-2.1,0.2c0-0.1,0-0.2,0-0.3c0-0.1-0.1-0.2-0.1-0.3c0.2-0.1,0.3-0.2,0.5-0.4
		c0.2-0.2,0.5-0.3,0.8-0.5c-0.8-0.5-1.6-1-2.3-1.4c-0.7-0.5-1.5-0.9-2.2-1.3c-1.4-0.7-2.8-1.4-3.9-2.4c-1.1-1-2-2.2-2.4-3.9
		c-0.1-0.2-0.3-0.4-0.5-0.5c-0.2-0.2-0.5-0.3-0.7-0.4c-0.9-0.5-1.7-0.9-2.6-1.3c-0.9-0.4-1.7-0.9-2.5-1.4c-1.7-1.1-2.9-2.4-3.6-4
		s-0.9-3.3-0.3-5.3" />
    </g>
</svg>
