<svg version="1.1" id="Layer_1" xmlns="http://www.w3.org/2000/svg" xmlns:xlink="http://www.w3.org/1999/xlink" x="0px" y="0px" viewBox="21 16.5 474.9 474.9" enable-background="new 21 16.5 474.9 474.9" xml:space="preserve">
    <path fill="#2DAAE1" d="M495.9,254c0-63.4-24.7-123.1-69.5-167.9c-44.8-44.8-104.5-69.5-167.9-69.5S135.4,41.2,90.6,86
    C45.7,130.9,21,190.5,21,254S45.7,377,90.6,421.9c44.8,44.8,104.5,69.5,167.9,69.5s123.1-24.7,167.9-69.5
    C471.2,377,495.9,317.4,495.9,254z M192.7,372.9h-55V195.2h55V372.9z M165,172c-18,0-32.5-14.7-32.5-32.8
    c0-18.1,14.6-32.8,32.5-32.8c18,0,32.5,14.7,32.5,32.8C197.5,157.3,182.9,172,165,172z M398.8,372.9h-54.7c0,0,0-67.7,0-93.3
    c0-25.6-9.7-39.9-29.9-39.9c-22,0-33.5,14.9-33.5,39.9c0,27.4,0,93.3,0,93.3h-52.7V195.2h52.7h0v23.9c0,0,15.9-29.3,53.5-29.3
    s64.6,23,64.6,70.6C398.8,308,398.8,372.9,398.8,372.9z" />
</svg>
